<svg width="48" height="48" viewBox="0 0 48 48" fill="none" xmlns="http://www.w3.org/2000/svg">
<rect width="48" height="48" fill="#F8F8F8" fill-opacity="0.2"/>
<path d="M30.5302 38.4694C30.671 38.6102 30.75 38.801 30.75 39.0001C30.75 39.1991 30.671 39.3899 30.5302 39.5307C30.3895 39.6714 30.1986 39.7505 29.9996 39.7505C29.8006 39.7505 29.6097 39.6714 29.469 39.5307L14.469 24.5307C14.3993 24.461 14.3439 24.3783 14.3062 24.2873C14.2684 24.1962 14.249 24.0986 14.249 24.0001C14.249 23.9015 14.2684 23.8039 14.3062 23.7128C14.3439 23.6218 14.3993 23.5391 14.469 23.4694L29.469 8.46943C29.5387 8.39974 29.6214 8.34447 29.7124 8.30676C29.8035 8.26904 29.9011 8.24963 29.9996 8.24963C30.0982 8.24963 30.1957 8.26904 30.2868 8.30676C30.3778 8.34447 30.4606 8.39974 30.5302 8.46943C30.5999 8.53911 30.6552 8.62183 30.6929 8.71288C30.7306 8.80392 30.75 8.9015 30.75 9.00005C30.75 9.0986 30.7306 9.19618 30.6929 9.28722C30.6552 9.37827 30.5999 9.46099 30.5302 9.53068L16.0609 24.0001L30.5302 38.4694Z" fill="#901719"/>
</svg>
