<svg xmlns="http://www.w3.org/2000/svg" width="33" height="43" fill="none">
  <path fill="#ffffff" fill-rule="evenodd" d="M31.557 26.072c0-6.318-3.891-11.73-9.41-13.963l.49-1.214c5.997 2.428 10.23 8.307 10.23 15.177 0 9.039-7.328 16.366-16.367 16.366-9.04 0-16.367-7.327-16.367-16.366 0-6.87 4.232-12.75 10.23-15.177l.49 1.214c-5.519 2.234-9.41 7.645-9.41 13.963 0 8.316 6.741 15.057 15.057 15.057s15.057-6.741 15.057-15.057ZM16.5.438l4.056 2.342v4.684L16.5 9.806l-4.057-2.342V2.78L16.5.438Zm-2.747 3.098v3.172L16.5 8.294l2.747-1.586V3.536L16.5 1.95l-2.747 1.586Z" clip-rule="evenodd"/>
  <path fill="#ffffff" fill-rule="evenodd" d="m16.5 8.294 4.056 2.342v4.684L16.5 17.662l-4.057-2.342v-4.684L16.5 8.294Zm-2.747 3.098v3.172L16.5 16.15l2.747-1.586v-3.172L16.5 9.806l-2.747 1.586Z" clip-rule="evenodd"/>
  <path fill="#ffffff" fill-rule="evenodd" d="m21.738 5.676 2.922 1.687v3.375l-2.922 1.687-2.923-1.687V7.363l2.922-1.687Zm-1.614 2.443v1.863l1.614.931 1.613-.931V8.119l-1.613-.931-1.614.931ZM11.263 5.676l2.922 1.687v3.375l-2.922 1.687-2.923-1.687V7.363l2.923-1.687ZM9.65 8.119v1.863l1.613.931 1.613-.931V8.119l-1.613-.931-1.613.931Z" clip-rule="evenodd"/>
</svg>
