<svg aria-hidden="true" style="position: absolute; width: 0; height: 0; overflow: hidden;" version="1.1" xmlns="http://www.w3.org/2000/svg" xmlns:xlink="http://www.w3.org/1999/xlink">
<defs>
<symbol id="icon-burger" viewBox="0 0 47 32">
<path stroke-linejoin="round" stroke-linecap="round" stroke-miterlimit="4" stroke-width="4.3636" d="M1.961 29.153h42.964M1.961 15.615h42.964M1.961 2.077h42.964"></path>
</symbol>
<symbol id="icon-close-black" viewBox="0 0 32 32">
<path d="M32 3.224l-3.224-3.224-12.776 12.776-12.776-12.776-3.224 3.224 12.776 12.776-12.776 12.776 3.224 3.224 12.776-12.776 12.776 12.776 3.224-3.224-12.776-12.776 12.776-12.776z"></path>
</symbol>
<symbol id="icon-person" viewBox="0 0 24 32">
<path d="M12 16c2.209 0 4-1.791 4-4s-1.791-4-4-4v0c-2.209 0-4 1.791-4 4s1.791 4 4 4v0zM12 18c-2.671 0-8 1.34-8 4v1c0 0.551 0.449 1 1 1h14c0.549 0 1-0.449 1-1v-1c0-2.66-5.331-4-8-4z"></path>
</symbol>
<symbol id="icon-email" viewBox="0 0 32 32">
<path d="M24 8h-16c-1.1 0-1.989 0.9-1.989 2l-0.011 12c0 1.1 0.9 2 2 2h16c1.1 0 2-0.9 2-2v-12c0-1.1-0.9-2-2-2zM23.6 12.251l-7.069 4.419c-0.151 0.094-0.334 0.15-0.531 0.15s-0.38-0.056-0.535-0.153l0.004 0.002-7.069-4.419c-0.252-0.15-0.418-0.422-0.418-0.731 0-0.469 0.38-0.849 0.849-0.849 0.174 0 0.337 0.053 0.471 0.143l6.697 4.187 6.7-4.191c0.132-0.088 0.294-0.141 0.468-0.141 0.469 0 0.849 0.38 0.849 0.849 0 0.31-0.166 0.581-0.414 0.729l-0.004 0.002z"></path>
</symbol>
<symbol id="icon-phone" viewBox="0 0 24 32">
<path d="M19.635 18.487l-2.451-0.28c-0.067-0.008-0.145-0.013-0.223-0.013-0.531 0-1.012 0.215-1.36 0.564l-1.775 1.775c-2.752-1.42-4.94-3.607-6.322-6.278l-0.038-0.081 1.787-1.785c0.347-0.347 0.562-0.827 0.562-1.358 0-0.079-0.005-0.156-0.014-0.233l0.001 0.009-0.28-2.432c-0.115-0.966-0.93-1.708-1.918-1.708-0.001 0-0.002 0-0.002 0h-1.669c-1.091 0-1.997 0.907-1.929 1.997 0.511 8.24 7.101 14.821 15.332 15.333 1.091 0.067 1.997-0.84 1.997-1.931v-1.669c0-0.003 0-0.007 0-0.011 0-0.981-0.739-1.789-1.69-1.899l-0.009-0.001z"></path>
</symbol>
<symbol id="icon-4" viewBox="0 0 28 32">
<path d="M27.496 0.917c-0.971 0.865-3.598 5.471-7.88 13.817-0.799 1.425-1.456 2.646-1.97 3.664l4.797-0.763c0.057 0.204 0.086 0.433 0.086 0.687 0 0.713-0.4 1.221-1.199 1.527-0.742 0.254-2.37 0.509-4.883 0.763-2.17 4.479-3.255 7.608-3.255 9.39 0 1.323-0.485 1.985-1.456 1.985-1.256 0-1.884-0.127-1.884-0.382 0.343-1.221 1.713-4.835 4.111-10.84-0.457 0.153-2.541 0.254-6.253 0.305h-7.109c-0.4 0-0.6-0.204-0.6-0.611 0-0.305 0.086-0.636 0.257-0.992 1.371-0.763 5.596-4.021 12.677-9.771 7.081-5.802 10.764-8.779 11.050-8.932 0.685-0.509 1.371-0.764 2.056-0.764 0.971 0 1.456 0.305 1.456 0.916zM24.412 2.215c-0.171 0-0.514 0.102-1.028 0.305-5.768 4.835-12.763 10.484-20.986 16.947 3.141-0.051 7.367-0.28 12.677-0.687 5.311-9.67 8.423-15.191 9.337-16.566z"></path>
</symbol>
<symbol id="icon-big-ring" viewBox="0 0 23 32">
<path d="M21.86 20.017c-0.641 1.695-1.648 3.279-2.803 4.735-1.137 1.432-2.454 2.786-3.989 3.888-1.531 1.099-3.282 2.014-5.138 2.594-0.977 0.305-2.010 0.534-3.049 0.567-1.065 0.034-2.16-0.183-3.117-0.596-0.775-0.335-1.47-0.808-2.035-1.389-0.453-0.466-0.89-1.022-1.083-1.62l-0.239-0.741c-0.028-0.089-0.060-0.178-0.086-0.267-0.036-0.124-0.033-0.257-0.041-0.385-0.054-0.851-0.014-1.709 0.137-2.551 0.291-1.618 0.989-3.151 1.962-4.535 1.045-1.485 2.378-2.761 3.786-3.974 1.538-1.326 3.137-2.62 4.447-4.138 0.296-0.343 0.574-0.698 0.829-1.067 0.030-0.044 0.002-0.111-0.056-0.122-0.238-0.047-0.478-0.089-0.715-0.141-0.539-0.119-0.938-0.506-1.020-0.997-0.005-0.028-0.036-0.050-0.065-0.058-0.268-0.076-0.522-0.143-0.732-0.323-0.274-0.236-0.372-0.572-0.466-0.891-0.121-0.413-0.345-0.787-0.544-1.173-0.096-0.186-0.171-0.379-0.26-0.567-0.114-0.242-0.253-0.474-0.364-0.718-0.254-0.558-0.508-1.12-0.723-1.692-0.096-0.257-0.193-0.522-0.236-0.792-0.013-0.083-0.031-0.183-0.006-0.266s0.103-0.106 0.181-0.15c0.357-0.196 0.766-0.4 1.195-0.408 0.114-0.002 0.229 0.011 0.336 0.048 0.105 0.036 0.124 0.072 0.161 0.163 0.041 0.105 0.073 0.214 0.101 0.322 0.014 0.056 0.112 0.086 0.155 0.037 0.15-0.17 0.265-0.362 0.417-0.53 0.184-0.202 0.409-0.367 0.666-0.488 0.368-0.172 0.77-0.259 1.173-0.332 0.053-0.009 0.072-0.060 0.065-0.102-0.070-0.397 0.017-0.964 0.543-1.054 0.443-0.076 0.937-0.095 1.382-0.029 0.198 0.029 0.43 0.087 0.585 0.207 0.132 0.102 0.154 0.261 0.172 0.408 0.036 0.288 0.004 0.56-0.020 0.849-0.010 0.113-0.044 0.246-0.030 0.36 0.026 0.222 0.292 0.38 0.368 0.588 0.016 0.044 0.063 0.069 0.114 0.058 0.507-0.107 1.016-0.274 1.543-0.273 0.124 0 0.248 0.010 0.367 0.044 0.031 0.009 0.148 0.051 0.136 0.037-0.011-0.013-0.004-0.007 0.002 0.015 0.036 0.11 0.042 0.236 0.062 0.349 0.048 0.269 0.084 0.536 0.123 0.806 0.030 0.206 0.079 0.396 0.305 0.468 0.496 0.158 0.985 0.4 1.438 0.641 0.465 0.247 0.908 0.528 1.321 0.84 0.768 0.58 1.433 1.263 1.986 2.013 0.524 0.711 0.951 1.478 1.295 2.273 0.31 0.715 0.59 1.453 0.69 2.217 0.21 1.605-0.056 3.261-0.401 4.836-0.219 1-0.51 1.979-0.814 2.96-0.005 0.015-0.010 0.030-0.015 0.046-0.036 0.102 0.143 0.146 0.179 0.044 0.294-0.842 0.526-1.705 0.73-2.569 0.377-1.595 0.669-3.256 0.55-4.89-0.056-0.776-0.265-1.504-0.552-2.236-0.312-0.796-0.697-1.571-1.175-2.299-1.065-1.618-2.603-2.945-4.497-3.764-0.238-0.103-0.49-0.182-0.727-0.28 0.005 0.002 0.006 0.004-0.003-0.003-0.032-0.025-0.053-0.063-0.069-0.1-0.066-0.153-0.056-0.319-0.080-0.478-0.018-0.118-0.042-0.236-0.063-0.354-0.027-0.153-0.054-0.307-0.082-0.461-0.019-0.103-0.011-0.16-0.123-0.213-0.43-0.202-0.983-0.095-1.429 0-0.249 0.053-0.494 0.117-0.743 0.169 0.038 0.019 0.076 0.039 0.114 0.058-0.038-0.105-0.109-0.194-0.178-0.284-0.058-0.075-0.166-0.179-0.183-0.27-0.024-0.128 0.025-0.298 0.036-0.427 0.028-0.334 0.061-0.651-0.022-0.983-0.096-0.386-0.546-0.526-0.942-0.574-0.471-0.057-0.997-0.046-1.462 0.052-0.594 0.125-0.687 0.802-0.609 1.246 0.022-0.034 0.043-0.068 0.065-0.102-0.419 0.075-0.835 0.169-1.217 0.348-0.247 0.116-0.469 0.271-0.652 0.459-0.178 0.182-0.303 0.395-0.469 0.585l0.155 0.037c-0.053-0.21-0.095-0.487-0.337-0.582-0.375-0.147-0.801-0.051-1.16 0.087-0.186 0.071-0.363 0.158-0.536 0.252-0.094 0.051-0.212 0.097-0.267 0.188-0.105 0.174-0.034 0.427 0.010 0.607 0.167 0.676 0.485 1.325 0.77 1.967 0.179 0.401 0.4 0.786 0.572 1.188 0.2 0.467 0.485 0.903 0.667 1.376 0.152 0.396 0.208 0.825 0.534 1.147 0.238 0.236 0.546 0.327 0.872 0.42l-0.065-0.058c0.082 0.491 0.465 0.896 0.982 1.068 0.28 0.093 0.59 0.129 0.882 0.186l-0.056-0.122c-1.144 1.662-2.752 3.033-4.316 4.374-1.47 1.26-2.94 2.513-4.136 3.997-1.085 1.347-1.935 2.85-2.382 4.466-0.212 0.739-0.346 1.593-0.371 2.473l-0 0.015c-0.012 0.447-0.015 0.909 0.045 1.354 0.022 0.165 0.097 0.331 0.148 0.49 0.079 0.243 0.156 0.486 0.235 0.729 0.084 0.261 0.249 0.503 0.404 0.733 0.446 0.661 1.032 1.242 1.726 1.702 1.139 0.756 2.537 1.142 3.947 1.18 0.804 0.022 1.625-0.12 2.398-0.301 1.74-0.409 3.379-1.141 4.871-2.032 1.702-1.017 3.164-2.278 4.443-3.705 1.295-1.445 2.428-3.032 3.254-4.734 0.181-0.372 0.346-0.75 0.491-1.135 0.038-0.101-0.141-0.145-0.179-0.044l0.004 0.001z"></path>
<path d="M15.661 6.69c-0.193 1.606-0.682 3.183-1.439 4.649-0.417 0.801-0.854 1.486-1.344 2.13l0.026-0.036c-0.542 0.719-1.162 1.386-1.8 2.037s-1.292 1.289-1.907 1.957c-0.562 0.609-1.118 1.263-1.646 1.94l-0.052 0.069c-0.478 0.611-0.977 1.31-1.444 2.032l-0.069 0.114c-0.471 0.736-0.919 1.487-1.288 2.269-0.699 1.479-1.144 3.22-0.633 4.804 0.061 0.19 0.138 0.376 0.228 0.557 0.048 0.097 0.208 0.013 0.16-0.084-0.757-1.536-0.393-3.36 0.26-4.87 0.342-0.792 0.78-1.548 1.242-2.288 0.53-0.848 1.020-1.553 1.539-2.234l-0.053 0.072c0.577-0.762 1.129-1.427 1.708-2.066l-0.023 0.026c0.602-0.666 1.242-1.301 1.876-1.942s1.259-1.291 1.815-1.989c0.481-0.598 0.934-1.267 1.33-1.972l0.038-0.074c0.789-1.426 1.328-2.963 1.582-4.539 0.021-0.113 0.049-0.305 0.072-0.498l0.006-0.063c0.013-0.106-0.173-0.105-0.185 0v0z"></path>
<path d="M15.739 6.767c2.009 0.798 2.976 2.873 3.398 4.682 0.479 2.046 0.284 4.188-0.369 6.184-0.625 1.911-1.679 3.701-3.031 5.279-1.292 1.507-2.864 2.823-4.629 3.878-0.779 0.475-1.689 0.935-2.637 1.324l-0.132 0.048c-1.010 0.406-2.092 0.673-3.202 0.721-0.254 0.011-0.509 0.009-0.762-0.010-0.119-0.009-0.118 0.157 0 0.166 1.104 0.084 2.262-0.117 3.298-0.452 1.003-0.324 1.969-0.785 2.877-1.281 1.842-1.007 3.497-2.291 4.874-3.779 1.421-1.535 2.557-3.287 3.282-5.174 0.769-2 1.083-4.161 0.744-6.261-0.164-1.016-0.479-2.023-0.977-2.949-0.454-0.843-1.087-1.637-1.956-2.174-0.195-0.123-0.421-0.238-0.657-0.333l-0.029-0.010c-0.108-0.043-0.203 0.1-0.093 0.143l0.001-0.001z"></path>
<path d="M16.137 6.863c0.418 0.098 0.828 0.225 1.226 0.375 0.402 0.151 0.804 0.325 1.149 0.567 0.799 0.56 1.433 1.309 1.93 2.097 0.997 1.583 1.428 3.414 1.415 5.222-0.014 1.976-0.527 3.945-1.3 5.79-0.377 0.901-0.872 1.746-1.478 2.539-0.588 0.772-1.257 1.491-1.943 2.194-0.637 0.653-1.291 1.282-2.011 1.862-0.748 0.601-1.543 1.161-2.394 1.639-0.131 0.078-0.324 0.181-0.52 0.278l-0.069 0.031c-0.105 0.052-0.011 0.195 0.093 0.143 0.87-0.427 1.677-0.956 2.438-1.524 0.759-0.566 1.473-1.179 2.129-1.84 1.41-1.424 2.809-2.898 3.656-4.663 0.443-0.922 0.783-1.889 1.052-2.862 0.27-0.978 0.452-1.978 0.511-2.985 0.108-1.851-0.223-3.737-1.13-5.413-0.441-0.814-1.018-1.589-1.74-2.225-0.335-0.296-0.7-0.555-1.116-0.751-0.403-0.19-0.83-0.345-1.261-0.475-0.126-0.042-0.323-0.097-0.522-0.145l-0.066-0.013c-0.116-0.027-0.165 0.133-0.049 0.16h-0.001zM16.067 3.783c0.018 0.733-0.073 1.477-0.22 2.197-0.039 0.19-0.084 0.379-0.137 0.565-0.030 0.103 0.149 0.148 0.179 0.044 0.208-0.721 0.31-1.475 0.352-2.218 0.011-0.196 0.016-0.392 0.012-0.589-0.002-0.107-0.188-0.107-0.185 0v0.001zM8.897 13.732c-0.845 0.794-1.627 1.625-2.356 2.502l-0.037 0.045c-0.685 0.823-1.352 1.735-1.96 2.688l-0.064 0.108c-0.535 0.832-1.074 1.81-1.55 2.823l-0.067 0.159c-0.41 0.856-0.817 1.901-1.154 2.978l-0.047 0.176c-0.17 0.56-0.318 1.125-0.453 1.692-0.142 0.597-0.254 1.203-0.242 1.816 0.003 0.157 0.014 0.314 0.032 0.471 0.012 0.105 0.198 0.106 0.185 0-0.069-0.611-0.013-1.22 0.111-1.823 0.12-0.583 0.272-1.164 0.436-1.739 0.305-1.064 0.684-2.111 1.134-3.133 0.452-1.027 0.976-2.030 1.566-2.999 0.653-1.065 1.297-1.976 1.995-2.842l-0.040 0.052c0.749-0.931 1.51-1.765 2.32-2.55l0.007-0.007c0.105-0.101 0.21-0.201 0.315-0.3 0.082-0.078-0.049-0.195-0.131-0.117v0.001z"></path>
<path d="M12.123 29.47c-0.48 0.352-1.044 0.599-1.627 0.78-0.628 0.195-1.286 0.335-1.949 0.391-0.572 0.048-1.161 0.038-1.719-0.092-0.462-0.108-0.911-0.273-1.322-0.49-0.422-0.222-0.851-0.518-1.052-0.931-0.048-0.098-0.207-0.013-0.16 0.084 0.184 0.38 0.559 0.668 0.939 0.891 0.423 0.249 0.896 0.436 1.38 0.566 1.216 0.325 2.557 0.14 3.742-0.2 0.683-0.196 1.341-0.472 1.899-0.88 0.093-0.068-0.040-0.184-0.131-0.117h0.001zM10.687 1.455c0.271-0.019 0.547-0.025 0.818-0.001 0.226 0.020 0.452 0.067 0.669 0.126 0.395 0.107 0.762 0.282 1.064 0.535 0.185 0.156 0.342 0.333 0.48 0.524 0.065 0.089 0.225 0.006 0.16-0.084-0.248-0.343-0.561-0.645-0.952-0.859-0.386-0.21-0.83-0.331-1.274-0.391-0.319-0.043-0.645-0.038-0.966-0.016-0.118 0.008-0.119 0.174 0 0.166l0.001-0.001zM16.762 6.995c0.568 0.286 0.959 0.774 1.301 1.257 0.352 0.496 0.654 1.022 0.9 1.567 0.488 1.081 0.766 2.238 0.814 3.404 0.005 0.109 0.008 0.238 0.008 0.366 0 0.57-0.054 1.126-0.158 1.666l0.009-0.055c-0.015 0.079 0.119 0.112 0.134 0.033 0.222-1.183 0.2-2.397-0.054-3.575-0.253-1.17-0.736-2.303-1.429-3.321-0.377-0.552-0.811-1.125-1.455-1.45-0.078-0.039-0.148 0.068-0.070 0.107l0.001-0.001z"></path>
<path d="M17.894 7.538c0.607 0.673 1.1 1.427 1.458 2.23s0.588 1.653 0.703 2.511c0.065 0.483 0.094 0.97 0.092 1.457 0 0.080 0.139 0.080 0.139 0 0.003-0.882-0.096-1.765-0.32-2.625-0.222-0.852-0.568-1.678-1.048-2.441-0.27-0.43-0.581-0.836-0.926-1.22-0.056-0.063-0.154 0.026-0.098 0.088z"></path>
<path d="M18.633 7.996c0.195 0.269 0.39 0.537 0.584 0.807 0.187 0.26 0.37 0.525 0.503 0.812 0.133 0.288 0.222 0.592 0.306 0.893 0.063 0.206 0.144 0.525 0.214 0.848l0.019 0.102c0.077 0.361 0.14 0.725 0.19 1.090 0.011 0.079 0.15 0.080 0.139 0-0.103-0.753-0.24-1.41-0.417-2.051l0.026 0.109c-0.084-0.312-0.172-0.626-0.299-0.927-0.122-0.29-0.291-0.56-0.475-0.821-0.219-0.31-0.445-0.617-0.668-0.925-0.048-0.067-0.169-0.004-0.12 0.063h-0.001zM19.918 9.275c0.347 0.818 0.578 1.673 0.682 2.543 0.009 0.079 0.148 0.080 0.139 0-0.116-0.956-0.358-1.826-0.71-2.637l0.024 0.061c-0.032-0.074-0.166-0.042-0.134 0.033zM15.276 6.935c-0.266 0.754-0.535 1.509-0.885 2.236-0.311 0.647-0.687 1.268-1.109 1.862-0.846 1.191-1.871 2.27-2.947 3.298-0.607 0.579-1.23 1.144-1.855 1.708-0.063 0.057 0.035 0.145 0.098 0.088 1.123-1.015 2.247-2.033 3.266-3.134 1.001-1.083 1.902-2.25 2.555-3.532 0.41-0.806 0.713-1.65 1.011-2.493 0.027-0.076-0.107-0.11-0.134-0.033z"></path>
<path d="M14.828 8.881c-0.469 1.472-1.391 2.789-2.464 3.966-1.138 1.248-2.453 2.35-3.713 3.495-0.728 0.661-1.438 1.339-2.085 2.065-0.056 0.062 0.043 0.151 0.098 0.088 1.162-1.302 2.522-2.443 3.826-3.627 1.22-1.108 2.402-2.27 3.306-3.606 0.497-0.735 0.903-1.521 1.167-2.348 0.025-0.077-0.11-0.11-0.134-0.033zM22.091 13.503c0.181 1.503 0.101 3.029-0.227 4.512-0.327 1.476-0.895 2.908-1.687 4.235-0.483 0.802-0.992 1.496-1.556 2.14l0.015-0.017c-0.054 0.063 0.043 0.151 0.098 0.088 1.046-1.199 1.881-2.539 2.482-3.962 0.599-1.418 0.962-2.914 1.074-4.426 0.023-0.294 0.036-0.636 0.036-0.982 0-0.56-0.035-1.112-0.102-1.653l0.007 0.065c-0.009-0.079-0.149-0.080-0.139 0zM18.257 24.96c-0.645 0.751-1.353 1.457-2.116 2.114-0.721 0.623-1.514 1.217-2.348 1.753l-0.083 0.050c-0.389 0.253-0.877 0.541-1.376 0.81l-0.117 0.057c-0.077 0.041-0.007 0.148 0.070 0.107 1.010-0.538 1.867-1.079 2.68-1.676l-0.061 0.043c0.825-0.601 1.601-1.256 2.317-1.961 0.395-0.389 0.772-0.791 1.132-1.208l0.022-0.026c0.054-0.064-0.066-0.126-0.12-0.063zM5.297 22.182c-0.463 0.708-0.848 1.456-1.151 2.231-0.306 0.784-0.538 1.601-0.652 2.426-0.056 0.405-0.064 0.812 0.011 1.215 0.065 0.35 0.189 0.691 0.362 1.011 0.352 0.653 0.917 1.207 1.617 1.572 0.802 0.417 1.751 0.584 2.669 0.471 0.088-0.011 0.051-0.131-0.037-0.12-0.804 0.099-1.641-0.033-2.363-0.362-0.705-0.322-1.284-0.829-1.666-1.449-0.401-0.653-0.551-1.383-0.48-2.122 0.040-0.41 0.127-0.818 0.228-1.219 0.119-0.473 0.241-0.858 0.382-1.233l-0.026 0.079c0.31-0.849 0.722-1.666 1.225-2.437 0.045-0.069-0.075-0.132-0.12-0.063v0.001z"></path>
<path d="M4.098 23.734c-0.495 0.958-0.813 1.984-0.937 3.033-0.116 0.981-0.083 2.039 0.564 2.879 0.314 0.408 0.741 0.743 1.237 0.964 0.080 0.035 0.15-0.072 0.071-0.107-0.431-0.193-0.811-0.472-1.103-0.816-0.314-0.37-0.51-0.802-0.605-1.258-0.101-0.489-0.092-0.991-0.044-1.485 0.056-0.565 0.158-1.081 0.305-1.577l-0.015 0.060c0.182-0.627 0.402-1.168 0.671-1.679l-0.023 0.049c0.037-0.072-0.082-0.136-0.12-0.063h-0.001z"></path>
<path d="M3.146 24.911c-0.247 0.689-0.393 1.406-0.434 2.129-0.040 0.696-0.016 1.429 0.286 2.081 0.155 0.334 0.371 0.641 0.64 0.911 0.060 0.060 0.158-0.028 0.098-0.088-0.487-0.488-0.773-1.098-0.856-1.746-0.088-0.696-0.044-1.416 0.087-2.106 0.085-0.444 0.194-0.829 0.33-1.2l-0.017 0.052c0.027-0.076-0.107-0.109-0.134-0.033h-0.001z"></path>
<path d="M2.572 25.604c-0.137 0.535-0.274 1.074-0.304 1.624-0.003 0.059-0.005 0.129-0.005 0.199 0 0.491 0.098 0.959 0.275 1.386l-0.009-0.024c0.030 0.075 0.164 0.043 0.134-0.033-0.165-0.395-0.261-0.854-0.261-1.336 0-0.067 0.002-0.135 0.006-0.201l-0 0.009c0.029-0.539 0.165-1.067 0.299-1.591 0.020-0.078-0.114-0.111-0.134-0.033zM2.221 25.766c-0.317 0.758-0.449 1.575-0.384 2.383 0.006 0.080 0.145 0.080 0.139 0-0.064-0.798 0.065-1.601 0.379-2.35 0.031-0.075-0.103-0.107-0.134-0.033v0.001zM1.915 25.543c-0.142 0.336-0.279 0.748-0.387 1.172l-0.014 0.064c-0.019 0.078 0.115 0.111 0.134 0.033 0.121-0.487 0.259-0.899 0.423-1.296l-0.022 0.061c0.030-0.075-0.104-0.108-0.134-0.033zM16.191 23.070c-0.932 1.168-2.045 2.219-3.297 3.115-0.297 0.216-0.655 0.455-1.022 0.679l-0.075 0.043c-0.074 0.045-0.004 0.153 0.070 0.107 1.345-0.815 2.562-1.797 3.605-2.911 0.277-0.296 0.552-0.612 0.814-0.938l0.025-0.032c0.052-0.065-0.069-0.128-0.12-0.063l-0.001 0.001zM15.938 23.793c-0.52 0.758-1.155 1.45-1.886 2.052-0.186 0.154-0.396 0.316-0.613 0.469l-0.034 0.023c-0.070 0.049 0.028 0.137 0.098 0.088 0.787-0.554 1.486-1.204 2.075-1.928 0.152-0.185 0.309-0.394 0.458-0.609l0.021-0.032c0.047-0.069-0.074-0.131-0.12-0.063zM16.409 23.791c-0.606 0.837-1.318 1.612-2.121 2.304-0.205 0.178-0.434 0.365-0.669 0.544l-0.034 0.025c-0.069 0.052 0.030 0.139 0.098 0.088 0.856-0.649 1.627-1.386 2.297-2.191 0.17-0.203 0.35-0.434 0.522-0.67l0.026-0.037c0.049-0.067-0.072-0.13-0.12-0.063v0.001zM16.848 23.858c-0.55 0.835-1.203 1.614-1.947 2.318-0.21 0.198-0.427 0.391-0.65 0.577-0.066 0.055 0.033 0.143 0.098 0.088 0.798-0.665 1.51-1.41 2.123-2.217 0.147-0.192 0.31-0.421 0.466-0.655l0.030-0.048c0.046-0.069-0.075-0.132-0.12-0.063l-0.001 0.001zM17.867 23.474c-0.888 1.181-1.902 2.284-3.024 3.292-0.288 0.26-0.606 0.532-0.93 0.795l-0.045 0.035c-0.067 0.054 0.032 0.142 0.098 0.088 1.186-0.958 2.269-2.016 3.231-3.157 0.24-0.282 0.498-0.604 0.748-0.934l0.041-0.057c0.050-0.066-0.070-0.129-0.12-0.063zM18.001 24.008c-0.77 0.969-1.628 1.882-2.564 2.727-0.237 0.215-0.5 0.443-0.767 0.664l-0.039 0.031c-0.066 0.054 0.033 0.142 0.098 0.088 0.985-0.813 1.896-1.697 2.72-2.642 0.203-0.231 0.423-0.494 0.636-0.761l0.035-0.045c0.052-0.065-0.069-0.128-0.12-0.063v0.001z"></path>
<path d="M7.73 14.299c-0.735 0.737-1.428 1.518-2.074 2.338l-0.043 0.057c-0.594 0.753-1.184 1.601-1.722 2.483l-0.065 0.114c-0.469 0.762-0.951 1.67-1.377 2.609l-0.065 0.159c-0.359 0.775-0.724 1.735-1.029 2.721l-0.046 0.173c-0.259 0.817-0.499 1.828-0.672 2.862l-0.019 0.137c-0.020 0.121-0.038 0.242-0.056 0.364-0.012 0.079 0.127 0.079 0.139 0 0.147-1.007 0.363-2.006 0.642-2.99 0.329-1.152 0.676-2.107 1.078-3.031l-0.061 0.157c0.473-1.104 0.94-2.017 1.458-2.895l-0.064 0.117c0.587-1.003 1.159-1.851 1.778-2.662l-0.046 0.063c0.675-0.887 1.35-1.671 2.070-2.413l-0.006 0.007c0.098-0.101 0.188-0.192 0.279-0.284l-0.002 0.002c0.059-0.060-0.038-0.148-0.098-0.088v0.001zM15.713 6.349c1.183 0.169 2.308 0.627 3.237 1.302 0.461 0.335 0.876 0.723 1.224 1.154 0.402 0.498 0.704 1.051 0.972 1.614 0.332 0.699 0.631 1.411 0.912 2.127 0.030 0.075 0.164 0.043 0.134-0.033-0.255-0.649-0.527-1.294-0.82-1.929-0.271-0.589-0.568-1.174-0.969-1.703-0.68-0.895-1.629-1.622-2.714-2.098-0.562-0.254-1.215-0.448-1.898-0.55l-0.041-0.005c-0.088-0.013-0.126 0.107-0.037 0.12v0zM13.983 3.184c0.574 0.237 1.327-0.009 1.576-0.536 0.035-0.073-0.085-0.137-0.12-0.063-0.216 0.459-0.874 0.702-1.386 0.491-0.081-0.033-0.151 0.074-0.070 0.107v0.001z"></path>
<path d="M15.022 3.135l0.159 2.037c0.006 0.080 0.145 0.080 0.139 0l-0.159-2.037c-0.006-0.080-0.145-0.080-0.139 0zM15.374 2.882l0.142 1.53c0.007 0.079 0.146 0.080 0.139 0l-0.142-1.53c-0.007-0.079-0.146-0.080-0.139 0zM14.607 3.391v0.933c0 0.080 0.139 0.080 0.139 0v-0.933c0-0.080-0.139-0.080-0.139 0zM14.134 3.646v0.255c0 0.033 0.032 0.064 0.069 0.062s0.069-0.027 0.069-0.062v-0.255c0-0.033-0.032-0.064-0.069-0.062s-0.069 0.027-0.069 0.062zM10.798 6.022c0.038 0.598 0.079 1.203-0.015 1.799-0.074 0.467-0.271 0.933-0.228 1.411 0.022 0.238 0.114 0.459 0.308 0.627 0.064 0.056 0.163-0.032 0.098-0.088-0.362-0.314-0.289-0.805-0.201-1.207 0.052-0.237 0.119-0.471 0.157-0.711 0.045-0.281 0.062-0.565 0.062-0.848 0-0.328-0.020-0.656-0.042-0.984-0.005-0.080-0.144-0.080-0.139 0zM13.481 6.046c-0.378 1.24-0.923 2.438-1.623 3.56-0.236 0.378-0.445 0.683-0.663 0.98l0.031-0.044c-0.066 0.090 0.095 0.173 0.16 0.084 0.793-1.089 1.436-2.263 1.913-3.491 0.099-0.239 0.222-0.585 0.332-0.938l0.029-0.107c0.031-0.103-0.147-0.147-0.179-0.044l-0.001 0.001z"></path>
<path d="M12.846 7.031c-0.326 0.958-0.807 1.869-1.426 2.703-0.049 0.067 0.070 0.129 0.12 0.063 0.625-0.842 1.111-1.765 1.441-2.732 0.026-0.077-0.108-0.11-0.134-0.033v-0.001zM12.533 7.023c-0.258 0.637-0.636 1.234-1.113 1.76-0.056 0.061 0.042 0.15 0.098 0.088 0.493-0.544 0.881-1.157 1.149-1.815 0.031-0.075-0.104-0.108-0.134-0.033zM12.266 6.518c-0.155 0.514-0.418 0.995-0.775 1.421-0.054 0.064 0.067 0.126 0.12 0.063 0.364-0.434 0.631-0.927 0.788-1.451 0.023-0.078-0.111-0.111-0.134-0.033h0.001zM11.052 5.43c0.282 0.725 0.359 1.508 0.216 2.265-0.015 0.079 0.119 0.112 0.134 0.033 0.047-0.237 0.074-0.509 0.074-0.788 0-0.555-0.106-1.086-0.3-1.572l0.010 0.029c-0.029-0.075-0.164-0.043-0.134 0.033v-0.001zM11.672 5.698c0.068 0.303 0.107 0.65 0.107 1.007 0 0.147-0.007 0.292-0.020 0.436l0.001-0.019c-0.007 0.080 0.132 0.080 0.139 0 0.043-0.488 0.010-0.977-0.094-1.457-0.017-0.079-0.151-0.045-0.134 0.033z"></path>
<path d="M11.938 5.616l0.214 0.928c0.018 0.079 0.152 0.045 0.134-0.033-0.072-0.309-0.143-0.619-0.214-0.928-0.018-0.079-0.152-0.045-0.134 0.033z"></path>
<path d="M9.537 7.763c-0.28-0.529-0.405-1.115-0.323-1.698 0.041-0.288 0.131-0.572 0.259-0.837 0.076-0.157 0.152-0.288 0.235-0.414l-0.008 0.014c0.041-0.063 0.079-0.12 0.138-0.17 0.054-0.046 0.114-0.092 0.175-0.136l0.008-0.005c0.24-0.166 0.516-0.291 0.807-0.367 0.264-0.070 0.556-0.114 0.828-0.059 0.122 0.025 0.242 0.069 0.335 0.148 0.11 0.094 0.159 0.222 0.193 0.351 0.082 0.312 0.135 0.632 0.187 0.948 0.050 0.282 0.098 0.654 0.132 1.030l0.004 0.057c0.006 0.070-0.006 0.167 0.029 0.23 0.012 0.023 0.033 0.044 0.048 0.064-0.057-0.081-0.014-0.024 0.028 0.032l0.102 0.141c0.027 0.037 0.082 0.054 0.127 0.030 0.632-0.347 0.893-1.012 0.914-1.648 0.024-0.708-0.272-1.411-0.091-2.115 0.066-0.258 0.197-0.581 0.5-0.682 0.111-0.037 0.063-0.198-0.049-0.16-0.28 0.094-0.447 0.317-0.55 0.559-0.12 0.282-0.161 0.596-0.146 0.896 0.018 0.381 0.113 0.755 0.142 1.135 0.027 0.36 0.007 0.728-0.127 1.072-0.126 0.324-0.357 0.619-0.687 0.8l0.127 0.030c0.005 0.008-0.034-0.043-0.073-0.095l-0.045-0.063c-0.018-0.024-0.041-0.049-0.056-0.075-0.001-0.002-0.003-0.003-0.004-0.005 0.018 0.041 0.008-0.015 0.007-0.026-0.005-0.073-0.010-0.123-0.015-0.174l0.002 0.027c-0.039-0.418-0.084-0.769-0.14-1.116l0.012 0.092c-0.053-0.336-0.112-0.674-0.195-1.005-0.035-0.14-0.087-0.278-0.189-0.391-0.091-0.101-0.215-0.17-0.349-0.214-0.272-0.090-0.577-0.070-0.856-0.018-0.34 0.065-0.643 0.182-0.916 0.344l0.013-0.007c-0.142 0.084-0.264 0.172-0.378 0.269l0.004-0.003c-0.127 0.108-0.207 0.267-0.285 0.406-0.155 0.275-0.273 0.568-0.341 0.87-0.154 0.69-0.030 1.39 0.305 2.024 0.051 0.096 0.211 0.012 0.16-0.084h0.001z"></path>
<path d="M12.271 6.141c-0.418 0.596-0.773 1.073-1.141 1.54l0.057-0.076c-0.034 0.044 0.046 0.085 0.080 0.042 0.31-0.391 0.666-0.868 1.009-1.354l0.074-0.11c0.031-0.045-0.048-0.087-0.080-0.042zM12.146 5.803c-0.278 0.495-0.639 0.948-1.074 1.343-0.042 0.038 0.023 0.097 0.066 0.059 0.44-0.4 0.807-0.858 1.088-1.359 0.027-0.048-0.053-0.090-0.080-0.042h0.001zM12.081 5.35c-0.283 0.401-0.59 0.752-0.929 1.069l-0.004 0.004c-0.041 0.039 0.024 0.097 0.066 0.059 0.348-0.325 0.659-0.682 0.932-1.068l0.015-0.022c0.031-0.045-0.048-0.087-0.080-0.042h0.001zM11.919 5.135c-0.377 0.314-0.717 0.637-1.034 0.983l-0.007 0.008c-0.038 0.041 0.028 0.1 0.066 0.059 0.324-0.353 0.664-0.677 1.024-0.977l0.017-0.014c0.044-0.037-0.022-0.095-0.066-0.059zM15.83 3.043c-0.244 0.419-0.722 0.715-1.247 0.765-0.059 0.006-0.059 0.089 0 0.083 0.558-0.054 1.067-0.36 1.327-0.807 0.028-0.047-0.053-0.089-0.080-0.042zM15.773 3.499c-0.302 0.239-0.649 0.431-1.024 0.562-0.055 0.019-0.031 0.1 0.025 0.080 0.391-0.137 0.751-0.334 1.065-0.583 0.044-0.035-0.021-0.094-0.066-0.059v-0.001zM15.818 3.819c-0.309 0.278-0.673 0.501-1.073 0.659-0.054 0.022-0.007 0.093 0.047 0.072 0.408-0.16 0.779-0.389 1.093-0.671 0.042-0.038-0.024-0.097-0.066-0.059l-0.001-0.001zM15.762 4.221c-0.256 0.249-0.582 0.433-0.945 0.53-0.057 0.015-0.033 0.095 0.025 0.080 0.377-0.101 0.719-0.292 0.986-0.551 0.040-0.039-0.025-0.098-0.066-0.059zM15.578 4.611c-0.257 0.164-0.514 0.327-0.772 0.491-0.048 0.030-0.002 0.103 0.047 0.072 0.257-0.164 0.514-0.327 0.772-0.491 0.048-0.030 0.002-0.103-0.047-0.072zM15.454 4.992c-0.25 0.085-0.468 0.202-0.66 0.35l0.005-0.004c-0.045 0.035 0.020 0.094 0.066 0.059 0.181-0.139 0.39-0.25 0.613-0.325 0.056-0.019 0.031-0.099-0.025-0.080l0.001 0.001zM15.496 5.227c-0.151 0.166-0.341 0.299-0.558 0.391-0.054 0.023-0.007 0.095 0.047 0.072 0.223-0.094 0.42-0.233 0.576-0.404 0.016-0.017 0.019-0.042 0-0.059-0.016-0.014-0.049-0.018-0.066 0v-0zM15.698 5.564c-0.213 0.128-0.427 0.256-0.641 0.384-0.049 0.029-0.003 0.101 0.047 0.072 0.213-0.128 0.427-0.256 0.641-0.384 0.049-0.029 0.003-0.101-0.047-0.072zM15.766 5.909c-0.148 0.093-0.296 0.187-0.444 0.28-0.020 0.013-0.030 0.037-0.017 0.057 0.012 0.018 0.043 0.028 0.064 0.015 0.148-0.093 0.296-0.187 0.445-0.279 0.020-0.013 0.030-0.037 0.017-0.057-0.012-0.018-0.043-0.028-0.064-0.015zM13.35 0.706c-0.252 0.247-0.547 0.454-0.875 0.614-0.053 0.025-0.006 0.097 0.047 0.072 0.335-0.163 0.638-0.375 0.895-0.627 0.040-0.039-0.025-0.099-0.066-0.059l-0.001-0.001zM13.442 0.903l-0.785 0.595c-0.046 0.034 0.020 0.093 0.066 0.059l0.785-0.595c0.046-0.034-0.020-0.093-0.066-0.059zM13.509 1.237c-0.082 0.087-0.17 0.172-0.27 0.244-0.099 0.071-0.21 0.127-0.322 0.179-0.053 0.024-0.006 0.096 0.047 0.072 0.117-0.054 0.231-0.114 0.334-0.188 0.103-0.072 0.192-0.159 0.276-0.248 0.038-0.040-0.027-0.1-0.066-0.059zM13.457 1.567c-0.022 0.033-0.043 0.065-0.067 0.096-0.005 0.007-0.010 0.014-0.016 0.020l0-0-0.006 0.007c0.001-0.001 0.001-0.001 0.002-0.002v0c-0.001 0.002-0.002 0.003-0.004 0.004-0.009 0.010-0.019 0.020-0.028 0.029l-0 0c-0.010 0.009-0.020 0.018-0.031 0.026l-0.001 0.001c-0.006 0.004-0.011 0.008-0.017 0.012 0.010-0.007-0.001 0.001-0.004 0.002-0.004 0.002-0.007 0.005-0.011 0.007-0.034 0.022-0.070 0.042-0.106 0.063-0.021 0.012-0.030 0.037-0.017 0.057 0.012 0.019 0.042 0.027 0.064 0.015 0.065-0.037 0.133-0.074 0.187-0.123s0.093-0.112 0.133-0.171c0.013-0.019 0.005-0.045-0.017-0.057s-0.051-0.004-0.064 0.015v-0.001zM20.39 9.629c-0.483-0.042-0.967-0.085-1.45-0.127-0.059-0.005-0.059 0.078 0 0.083 0.483 0.042 0.967 0.085 1.45 0.127 0.059 0.005 0.059-0.078 0-0.083zM20.079 9.369c-0.464-0.049-0.928-0.099-1.392-0.148-0.059-0.006-0.059 0.077 0 0.083 0.464 0.049 0.928 0.099 1.392 0.148 0.059 0.006 0.059-0.077 0-0.083zM19.96 9.069c-0.355-0.046-0.765-0.073-1.181-0.073-0.144 0-0.287 0.003-0.429 0.009l0.020-0.001c-0.059 0.003-0.060 0.086 0 0.083 0.122-0.006 0.266-0.009 0.41-0.009 0.407 0 0.808 0.026 1.202 0.075l-0.047-0.005c0.058 0.007 0.083-0.073 0.025-0.080zM19.457 8.771c-0.248-0.039-0.534-0.061-0.826-0.061-0.136 0-0.271 0.005-0.405 0.014l0.018-0.001c-0.059 0.004-0.059 0.087 0 0.083 0.116-0.009 0.252-0.014 0.389-0.014 0.282 0 0.559 0.021 0.83 0.062l-0.030-0.004c0.058 0.009 0.083-0.071 0.025-0.080v0.001zM19.258 8.465c-0.2-0.023-0.433-0.036-0.668-0.036-0.144 0-0.287 0.005-0.428 0.015l0.019-0.001c-0.059 0.004-0.059 0.087 0 0.083 0.121-0.008 0.263-0.013 0.406-0.013 0.236 0 0.47 0.013 0.699 0.038l-0.028-0.003c0.059 0.007 0.059-0.077 0-0.083zM18.889 8.266c-0.219-0.040-0.47-0.064-0.727-0.064-0.104 0-0.207 0.004-0.31 0.011l0.014-0.001c-0.059 0.004-0.059 0.087 0 0.083 0.088-0.007 0.191-0.011 0.295-0.011 0.248 0 0.492 0.022 0.728 0.065l-0.025-0.004c0.058 0.011 0.084-0.070 0.025-0.080zM18.486 7.877c-0.198 0.038-0.426 0.060-0.66 0.060-0.097 0-0.193-0.004-0.289-0.011l0.013 0.001c-0.059-0.004-0.059 0.079 0 0.083 0.322 0.024 0.644 0.006 0.96-0.052 0.058-0.011 0.034-0.091-0.025-0.080zM17.877 7.596c-0.22-0.033-0.446-0.020-0.659 0.043-0.056 0.017-0.032 0.097 0.025 0.080 0.196-0.057 0.406-0.073 0.609-0.043 0.058 0.009 0.083-0.071 0.025-0.080zM17.275 7.371c-0.058 0.035-0.128 0.056-0.203 0.056-0.028 0-0.054-0.003-0.080-0.008l0.003 0c-0.024-0.005-0.050 0.007-0.057 0.029-0.006 0.021 0.008 0.046 0.032 0.051 0.12 0.024 0.249 0.005 0.352-0.057 0.021-0.012 0.030-0.036 0.017-0.057-0.012-0.018-0.043-0.027-0.064-0.015l0.001 0.001zM22.575 14.357c0.012 1.601-0.223 3.2-0.698 4.743-0.464 1.505-1.157 2.948-2.049 4.289-0.802 1.206-1.754 2.345-2.85 3.351-1.012 0.929-2.135 1.768-3.337 2.492-1.228 0.741-2.571 1.39-4.015 1.714-0.164 0.037-0.329 0.069-0.496 0.096-0.059 0.009-0.034 0.090 0.025 0.080 1.457-0.238 2.824-0.844 4.068-1.546 1.252-0.708 2.419-1.545 3.478-2.47 1.1-0.96 2.062-2.047 2.886-3.207 0.932-1.311 1.676-2.727 2.194-4.211 0.535-1.534 0.834-3.134 0.881-4.741 0.006-0.196 0.007-0.393 0.006-0.589 0-0.053-0.093-0.054-0.093 0v0.001zM8.603 31.295c-0.833 0.277-1.734 0.371-2.618 0.286-0.939-0.094-1.794-0.383-2.548-0.826l0.029 0.016c-0.457-0.264-0.879-0.571-1.298-0.881-0.046-0.034-0.112 0.025-0.066 0.059 0.733 0.542 1.486 1.072 2.38 1.386 0.841 0.296 1.762 0.41 2.662 0.338 0.507-0.041 1.007-0.14 1.483-0.299 0.056-0.018 0.032-0.099-0.025-0.080v0.002z"></path>
<path d="M7.109 31.37c-1.697 0.14-3.254-0.637-4.558-1.526-0.38-0.259-0.749-0.532-1.117-0.804-0.046-0.034-0.112 0.025-0.066 0.059 1.296 0.959 2.664 1.959 4.352 2.276 0.456 0.086 0.925 0.117 1.39 0.079 0.059-0.005 0.059-0.088 0-0.083h-0.001z"></path>
<path d="M1.050 28.394c0.665 0.608 1.403 1.152 2.199 1.619 0.161 0.098 0.389 0.225 0.622 0.346l0.077 0.036c0.052 0.027 0.099-0.045 0.047-0.072-0.823-0.421-1.595-0.919-2.298-1.488-0.217-0.176-0.406-0.34-0.59-0.509l0.010 0.009c-0.042-0.038-0.108 0.020-0.066 0.059zM1.208 28.201c0.806 0.577 1.613 1.154 2.418 1.731 0.046 0.033 0.112-0.025 0.065-0.059-0.806-0.577-1.612-1.154-2.418-1.731-0.046-0.033-0.112 0.026-0.066 0.059zM1.206 27.744c0.427 0.417 0.905 0.79 1.424 1.114 0.049 0.030 0.095-0.041 0.047-0.072-0.512-0.32-0.983-0.689-1.405-1.101-0.040-0.039-0.106 0.019-0.066 0.059h-0.001zM1.35 27.448c0.521 0.382 1.042 0.764 1.564 1.146 0.046 0.034 0.112-0.025 0.066-0.059-0.521-0.382-1.042-0.764-1.564-1.146-0.046-0.034-0.112 0.025-0.066 0.059zM1.459 27.010c0.39 0.361 0.812 0.704 1.256 1.017l0.038 0.026c0.046 0.033 0.112-0.026 0.065-0.059-0.483-0.339-0.905-0.682-1.303-1.050l0.008 0.007c-0.041-0.039-0.107 0.020-0.065 0.059zM1.549 26.59c0.362 0.291 0.773 0.594 1.197 0.88l0.065 0.041c0.047 0.032 0.094-0.040 0.047-0.072-0.482-0.323-0.888-0.621-1.28-0.936l0.036 0.028c-0.045-0.035-0.11 0.023-0.066 0.059v0.001zM1.677 26.209c0.4 0.245 0.8 0.489 1.201 0.734 0.049 0.030 0.096-0.041 0.047-0.072-0.4-0.245-0.8-0.489-1.201-0.734-0.049-0.030-0.096 0.041-0.047 0.072zM1.874 25.86c0.38 0.243 0.761 0.486 1.141 0.729 0.049 0.031 0.095-0.041 0.047-0.072-0.38-0.243-0.761-0.486-1.141-0.729-0.049-0.031-0.095 0.041-0.047 0.072zM2.678 25.863c0.186 0.181 0.402 0.336 0.64 0.459 0.052 0.027 0.098-0.045 0.047-0.072-0.238-0.124-0.443-0.272-0.623-0.446l0.001 0.001c-0.040-0.039-0.106 0.019-0.066 0.059zM3.047 25.63c0.106 0.172 0.268 0.315 0.462 0.407 0.053 0.025 0.099-0.047 0.047-0.072-0.181-0.086-0.33-0.217-0.429-0.378-0.029-0.046-0.109-0.005-0.080 0.042zM3.556 25.459c0.063 0.075 0.126 0.151 0.189 0.226 0.014 0.017 0.041 0.028 0.064 0.015 0.019-0.011 0.032-0.038 0.017-0.057-0.063-0.075-0.126-0.151-0.189-0.226-0.014-0.017-0.041-0.028-0.064-0.015-0.019 0.011-0.032 0.038-0.017 0.057zM3.445 24.966c0.168 0.113 0.336 0.227 0.504 0.34 0.020 0.013 0.052 0.003 0.064-0.015 0.014-0.021 0.004-0.043-0.017-0.057-0.168-0.113-0.336-0.227-0.504-0.34-0.020-0.013-0.052-0.003-0.064 0.015-0.014 0.021-0.004 0.043 0.017 0.057zM3.692 24.576c0.083 0.057 0.167 0.115 0.251 0.172 0.019 0.013 0.053 0.003 0.064-0.015 0.013-0.022 0.004-0.043-0.017-0.057-0.083-0.057-0.167-0.115-0.251-0.172-0.019-0.013-0.053-0.003-0.064 0.015-0.013 0.022-0.004 0.043 0.017 0.057zM14.631 10.266c-0.441 0.815-0.989 1.581-1.6 2.302-0.616 0.728-1.296 1.413-1.996 2.077-0.702 0.666-1.426 1.313-2.141 1.969s-1.422 1.321-2.085 2.021c-0.654 0.691-1.266 1.418-1.79 2.194-0.065 0.096-0.129 0.194-0.191 0.291-0.030 0.046 0.051 0.089 0.080 0.042 0.506-0.794 1.105-1.537 1.755-2.241 0.652-0.707 1.352-1.376 2.064-2.034s1.438-1.304 2.145-1.967c0.703-0.659 1.388-1.335 2.017-2.052 0.621-0.708 1.188-1.458 1.653-2.258 0.028-0.044 0.085-0.143 0.139-0.242l0.030-0.059c0.026-0.048-0.054-0.090-0.080-0.042h-0.001zM13.177 12.928c-4.638 4.543-5.846 5.729-7.053 6.915l3.346-3.277c-0.584 0.573-1.171 1.142-1.748 1.72-0.524 0.524-1.036 1.060-1.499 1.629-0.519 0.638-0.972 1.32-1.298 2.055-0.022 0.050 0.067 0.071 0.090 0.022 0.584-1.319 1.58-2.443 2.621-3.495 1.164-1.176 2.362-2.326 3.546-3.487 0.688-0.675 1.375-1.349 2.062-2.024 0.040-0.039-0.025-0.098-0.066-0.059v-0.001z"></path>
<path d="M8.624 18.048c-0.592 0.335-0.974 0.879-1.365 1.383-0.466 0.602-0.934 1.203-1.399 1.806-0.236 0.306-0.461 0.618-0.622 0.962-0.023 0.049 0.067 0.071 0.090 0.022 0.143-0.306 0.342-0.586 0.549-0.859 0.221-0.29 0.446-0.577 0.67-0.866 0.226-0.292 0.452-0.583 0.678-0.875 0.204-0.263 0.402-0.531 0.62-0.785 0.234-0.274 0.499-0.53 0.827-0.716 0.050-0.029 0.004-0.1-0.047-0.072h0.001zM3.421 21.582c-0.237 0.548-0.475 1.097-0.712 1.645-0.222 0.513-0.477 1.032-0.508 1.59-0.003 0.053 0.090 0.053 0.093 0 0.031-0.557 0.293-1.080 0.515-1.593l0.701-1.619c0.022-0.050-0.068-0.071-0.090-0.022h0.001zM3.556 21.942l-0.558 1.434c-0.183 0.47-0.373 0.939-0.534 1.416-0.089 0.265-0.167 0.533-0.227 0.805-0.012 0.052 0.078 0.075 0.090 0.022 0.106-0.479 0.269-0.945 0.445-1.407 0.182-0.479 0.371-0.956 0.557-1.434l0.317-0.814c0.020-0.050-0.070-0.073-0.090-0.022h0.001zM3.548 22.882c-0.303 0.832-0.606 1.666-0.909 2.498-0.019 0.051 0.071 0.073 0.090 0.022 0.303-0.832 0.606-1.665 0.909-2.498 0.018-0.051-0.071-0.073-0.090-0.022zM4.015 22.812c-0.253 0.591-0.508 1.182-0.761 1.773-0.022 0.050 0.068 0.071 0.090 0.022 0.253-0.591 0.508-1.182 0.761-1.773 0.022-0.050-0.068-0.071-0.090-0.022zM4.785 22.377c-0.289 0.52-0.579 1.041-0.869 1.561-0.027 0.048 0.053 0.090 0.080 0.042 0.289-0.52 0.579-1.041 0.869-1.561 0.027-0.048-0.053-0.090-0.080-0.042zM12.527 12.55c-0.027 0.471-0.054 0.941-0.081 1.413-0.003 0.053 0.090 0.053 0.093 0 0.027-0.471 0.054-0.941 0.081-1.413 0.003-0.053-0.090-0.053-0.093 0zM12.844 12.37c-0.051 0.32-0.080 0.689-0.080 1.065 0 0.007 0 0.013 0 0.020v-0.001c0 0.054 0.093 0.054 0.093 0-0-0.010-0-0.021-0-0.032 0-0.363 0.028-0.72 0.082-1.068l-0.005 0.039c0.008-0.052-0.082-0.075-0.090-0.022zM13.21 11.983v1.131c0 0.054 0.093 0.054 0.093 0v-1.131c0-0.054-0.093-0.054-0.093 0zM13.46 11.531c0.010 0.327 0.049 0.653 0.114 0.975 0.010 0.053 0.1 0.030 0.090-0.022-0.059-0.28-0.099-0.608-0.11-0.943l-0-0.010c-0.002-0.053-0.095-0.054-0.093 0zM13.772 10.797c-0 0.011-0 0.023-0 0.035 0 0.392 0.057 0.771 0.163 1.129l-0.007-0.028c0.015 0.052 0.105 0.030 0.090-0.022-0.097-0.324-0.153-0.696-0.153-1.081 0-0.012 0-0.024 0-0.035v0.002c0-0.054-0.092-0.054-0.093 0zM14.132 10.119c0.113 0.329 0.163 0.672 0.145 1.016-0.002 0.054 0.090 0.053 0.093 0 0.002-0.040 0.003-0.087 0.003-0.135 0-0.324-0.056-0.634-0.158-0.923l0.006 0.019c-0.017-0.051-0.107-0.029-0.090 0.022zM14.344 9.622c0.099 0.261 0.17 0.563 0.2 0.877l0.001 0.014c0.005 0.053 0.098 0.053 0.093 0-0.031-0.337-0.104-0.647-0.213-0.939l0.008 0.025c-0.019-0.050-0.108-0.029-0.090 0.022h0.001zM14.663 8.988c-0.020 0.336 0.052 0.67 0.206 0.977 0.024 0.049 0.104 0.007 0.080-0.042-0.124-0.241-0.196-0.525-0.196-0.826 0-0.038 0.001-0.077 0.004-0.114l-0 0.005c0.003-0.053-0.090-0.053-0.093 0h-0.001zM14.734 8.612c0.155 0.193 0.241 0.422 0.247 0.659 0.001 0.053 0.094 0.054 0.093 0-0.006-0.251-0.096-0.497-0.259-0.701-0.035-0.043-0.115-0.002-0.080 0.042v-0.001zM14.958 7.818c0.114 0.318 0.229 0.635 0.344 0.953 0.018 0.050 0.108 0.029 0.090-0.022-0.114-0.318-0.229-0.635-0.344-0.953-0.019-0.050-0.108-0.029-0.090 0.022zM15.172 7.358c0.045 0.131 0.088 0.262 0.133 0.394 0.017 0.051 0.107 0.029 0.090-0.022-0.044-0.131-0.088-0.262-0.133-0.394-0.017-0.051-0.107-0.029-0.090 0.022zM12.14 13.171c-0.009 0.115-0.015 0.249-0.015 0.383 0 0.288 0.024 0.57 0.071 0.845l-0.004-0.030c0.009 0.053 0.098 0.030 0.090-0.022-0.041-0.238-0.064-0.512-0.064-0.792 0-0.136 0.005-0.27 0.016-0.403l-0.001 0.018c0.004-0.053-0.088-0.053-0.093 0v0.001zM11.821 13.567v0.848c0 0.054 0.093 0.054 0.093 0v-0.848c0-0.054-0.093-0.054-0.093 0zM11.507 13.849c-0.007 0.070-0.010 0.152-0.010 0.235 0 0.222 0.027 0.437 0.077 0.643l-0.004-0.018c0.012 0.052 0.102 0.030 0.090-0.022-0.045-0.181-0.070-0.39-0.070-0.604 0-0.082 0.004-0.163 0.011-0.243l-0.001 0.010c0.005-0.053-0.088-0.053-0.093 0zM11.118 14.302c0.025 0.301 0.051 0.602 0.077 0.903 0.004 0.053 0.097 0.053 0.093 0-0.025-0.301-0.051-0.602-0.077-0.903-0.004-0.053-0.097-0.053-0.093 0zM10.69 14.764c0.042 0.165 0.066 0.354 0.066 0.548 0 0.082-0.004 0.163-0.013 0.243l0.001-0.010c-0.006 0.053 0.087 0.053 0.093 0 0.027-0.269 0.007-0.54-0.057-0.803-0.013-0.052-0.102-0.030-0.090 0.022zM10.3 15.319l0.077 0.677c0.006 0.053 0.099 0.053 0.093 0l-0.077-0.677c-0.006-0.053-0.099-0.053-0.093 0zM9.976 15.546l0.070 0.847c0.004 0.053 0.097 0.053 0.093 0l-0.070-0.847c-0.004-0.053-0.097-0.053-0.093 0zM9.672 15.941l0.076 0.79c0.005 0.053 0.098 0.053 0.093 0l-0.076-0.79c-0.005-0.053-0.098-0.053-0.093 0zM9.299 16.223c0.025 0.32 0.051 0.64 0.077 0.96 0.004 0.053 0.097 0.053 0.093 0-0.025-0.32-0.051-0.64-0.077-0.96-0.004-0.053-0.097-0.053-0.093 0zM8.862 16.326c-0.016 0.096-0.026 0.207-0.026 0.32 0 0.26 0.050 0.508 0.14 0.735l-0.005-0.014c0.020 0.050 0.109 0.029 0.090-0.022-0.124-0.32-0.163-0.662-0.109-0.997 0.009-0.052-0.081-0.075-0.090-0.022zM8.47 16.958c0.002 0.364 0.031 0.72 0.085 1.067l-0.005-0.040c0.008 0.053 0.097 0.030 0.090-0.022-0.048-0.301-0.076-0.649-0.077-1.004v-0.001c0-0.054-0.093-0.054-0.093 0z"></path>
<path d="M8.159 17.297v1.187c0 0.054 0.093 0.054 0.093 0v-1.187c0-0.054-0.093-0.054-0.093 0zM7.843 17.863v0.961c0 0.054 0.093 0.054 0.093 0v-0.961c0-0.054-0.093-0.054-0.093 0zM7.464 18.315v0.848c0 0.054 0.093 0.054 0.093 0v-0.848c0-0.054-0.093-0.054-0.093 0zM6.959 18.993v0.735c0 0.054 0.093 0.054 0.093 0v-0.735c0-0.054-0.093-0.054-0.093 0zM6.643 19.332v1.017c0 0.054 0.093 0.054 0.093 0v-1.017c0-0.054-0.093-0.054-0.093 0zM6.201 19.558v0.904c0 0.054 0.093 0.054 0.093 0v-0.904c0-0.054-0.093-0.054-0.093 0zM5.948 20.067v1.244c0 0.054 0.093 0.054 0.093 0v-1.244c0-0.054-0.093-0.054-0.093 0zM5.443 20.689v1.074c0 0.054 0.093 0.054 0.093 0v-1.074c0-0.054-0.093-0.054-0.093 0zM5.127 21.198v1.3c0 0.054 0.093 0.054 0.093 0v-1.3c0-0.054-0.093-0.054-0.093 0zM4.641 21.685c-0.114 0.417-0.135 0.849-0.066 1.274 0.009 0.053 0.098 0.030 0.090-0.022-0.024-0.14-0.037-0.3-0.037-0.464 0-0.272 0.038-0.536 0.108-0.786l-0.005 0.020c0.014-0.052-0.075-0.074-0.090-0.022zM4.181 22.272v1.47c0 0.054 0.093 0.054 0.093 0v-1.47c0-0.054-0.093-0.054-0.093 0zM3.865 23.233v1.244c0 0.054 0.093 0.054 0.093 0v-1.244c0-0.054-0.093-0.054-0.093 0zM14.915 6.688c-0.704 2.059-1.707 4.001-3.198 5.702-0.778 0.887-1.694 1.652-2.558 2.469-0.851 0.806-1.637 1.662-2.361 2.563-0.358 0.441-0.739 0.947-1.101 1.466l-0.057 0.087c-0.343 0.497-0.801 1.046-0.968 1.615-0.014 0.045 0.054 0.086 0.092 0.048 0.394-0.399 0.65-0.938 0.963-1.39 0.383-0.551 0.722-1.004 1.075-1.446l-0.042 0.054c0.746-0.94 1.562-1.839 2.428-2.692 0.859-0.846 1.8-1.62 2.597-2.518 0.723-0.815 1.353-1.695 1.881-2.622 0.597-1.048 1.070-2.161 1.337-3.314 0.012-0.052-0.072-0.074-0.090-0.022v0.001zM9.959 4.921c0.2 0.129 0.404 0.295 0.641 0.37 0.171 0.054 0.309 0.002 0.469-0.060 0.365-0.141 0.725-0.352 0.8-0.728 0.006-0.029-0.028-0.047-0.053-0.028-0.247 0.183-0.522 0.29-0.808 0.413-0.189 0.082-0.292 0.102-0.501 0.037-0.019-0.012-0.179-0.062-0.339-0.11l-0.14-0.036c-0.1-0.029-0.142 0.094-0.067 0.142l-0.001-0.001zM10.749 0.585c0.168 0.051 0.217 0.27 0.312 0.387 0.046 0.058 0.103 0.099 0.176 0.126 0.223 0.083 0.54 0.028 0.772 0.026 0.254-0.003 0.554 0.035 0.802-0.023s0.533-0.252 0.721-0.406c0.057-0.047-0.003-0.15-0.079-0.121-0.239 0.090-0.447 0.294-0.697 0.352-0.28 0.065-0.645 0.015-0.934 0.018-0.121 0.001-0.271 0.026-0.39 0.003-0.276-0.054-0.245-0.154-0.355-0.309-0.079-0.112-0.164-0.174-0.313-0.167-0.072 0.004-0.086 0.091-0.017 0.112h0.001zM14.145 3.194c0.289 0.147 0.674 0.2 0.981 0.067 0.252-0.11 0.555-0.427 0.49-0.692-0.015-0.064-0.106-0.093-0.166-0.060-0.212 0.114-0.219 0.373-0.452 0.485-0.246 0.118-0.554 0.062-0.819 0.090-0.061 0.007-0.096 0.079-0.033 0.111v-0.001z"></path>
<path d="M12.343 1.021c-0.14 0.1-0.279 0.201-0.419 0.301-0.026 0.019-0.041 0.060-0.041 0.088 0 0.030 0.015 0.067 0.041 0.088 0.027 0.022 0.061 0.038 0.098 0.037 0.039-0.002 0.068-0.015 0.098-0.037 0.14-0.1 0.279-0.201 0.419-0.301 0.026-0.019 0.041-0.060 0.041-0.088 0-0.030-0.015-0.067-0.041-0.088-0.027-0.022-0.061-0.038-0.098-0.037-0.039 0.002-0.068 0.015-0.098 0.037z"></path>
<path d="M12.090 1.060c-0.083 0.102-0.192 0.19-0.314 0.255-0.022 0.012-0.029 0.038-0.017 0.057s0.042 0.027 0.064 0.015c0.137-0.073 0.252-0.168 0.345-0.282l0.002-0.002c0.015-0.018 0.004-0.047-0.017-0.057-0.023-0.012-0.049-0.003-0.064 0.015h0.001zM11.782 1.040c-0.137 0.060-0.252 0.149-0.339 0.262l-0.001 0.002c-0.014 0.018-0.004 0.046 0.017 0.057 0.007 0.004 0.015 0.006 0.023 0.006 0.017 0 0.031-0.008 0.040-0.020l0-0c0.040-0.051 0.085-0.096 0.134-0.134l0.002-0.001c0.049-0.038 0.105-0.071 0.165-0.097l0.005-0.002c0.022-0.010 0.028-0.039 0.017-0.057-0.014-0.020-0.041-0.025-0.064-0.015zM11.364 1.030c-0.062 0.103-0.138 0.191-0.226 0.265l-0.002 0.001c-0.008 0.007-0.013 0.018-0.013 0.029s0.005 0.022 0.013 0.029l0 0c0.018 0.016 0.047 0.016 0.066 0 0.095-0.080 0.175-0.173 0.239-0.278l0.003-0.005c0.004-0.006 0.006-0.013 0.006-0.021 0-0.016-0.009-0.029-0.022-0.036l-0-0c-0.021-0.011-0.051-0.005-0.064 0.015h0.001zM11.179 0.949c-0.109 0.145-0.25 0.27-0.414 0.365-0.021 0.012-0.030 0.037-0.017 0.057 0.012 0.019 0.043 0.027 0.064 0.015 0.177-0.104 0.329-0.238 0.446-0.395 0.014-0.019 0.004-0.046-0.017-0.057-0.007-0.004-0.015-0.006-0.023-0.006-0.017 0-0.031 0.008-0.041 0.020l-0 0h0.001zM11.018 0.823c-0.164 0.136-0.328 0.271-0.492 0.406-0.044 0.037 0.022 0.095 0.065 0.059 0.164-0.136 0.328-0.271 0.492-0.406 0.044-0.037-0.022-0.095-0.066-0.059zM8.377 2.623c-0.591 0.848-0.725 1.983-0.027 2.817 0.175 0.208 0.385 0.38 0.623 0.508l0.011 0.006c0.103 0.054 0.197-0.089 0.093-0.143-0.41-0.216-0.717-0.568-0.879-0.967-0.179-0.441-0.179-0.92-0.041-1.37 0.083-0.272 0.214-0.529 0.38-0.767 0.063-0.091-0.097-0.174-0.16-0.084zM13.46 4.986c-0.005 0.013-0.011 0.026-0.016 0.039 0.011-0.024-0.003 0.004-0.005 0.007-0.008 0.014-0.017 0.027-0.027 0.039-0.030 0.040-0.058 0.081-0.088 0.121-0.066 0.089-0.134 0.163-0.221 0.242-0.169 0.153-0.364 0.271-0.59 0.358-0.069 0.027-0.085 0.117-0.050 0.17 0.041 0.064 0.121 0.071 0.19 0.045 0.254-0.1 0.472-0.237 0.659-0.409l-0.002 0.001c0.092-0.085 0.175-0.177 0.249-0.276l0.004-0.005c0.064-0.086 0.125-0.168 0.164-0.266 0.025-0.063-0.028-0.136-0.097-0.153-0.011-0.003-0.024-0.005-0.037-0.005-0.061 0-0.113 0.037-0.134 0.091l-0 0.001v-0zM13.055 5.986c0.022-0.002 0.039-0.020 0.039-0.042s-0.017-0.040-0.039-0.042h-0c-0.022 0.002-0.039 0.020-0.039 0.042s0.017 0.040 0.039 0.042h0z"></path>
<path d="M8.605 2.81c-0.329 0.495-0.453 1.082-0.353 1.651 0.009 0.053 0.099 0.030 0.090-0.022-0.096-0.546 0.028-1.112 0.344-1.587 0.030-0.046-0.049-0.088-0.080-0.042v0.001zM12.563 1.953c0.456 0.235 0.839 0.572 1.109 0.977 0.030 0.046 0.111 0.004 0.080-0.042-0.277-0.417-0.672-0.765-1.141-1.007-0.052-0.027-0.098 0.045-0.047 0.072h-0.001zM13.086 2.568l0.433 0.375c0.043 0.037 0.109-0.022 0.066-0.059-0.144-0.125-0.289-0.25-0.433-0.375-0.043-0.037-0.109 0.022-0.066 0.059zM12.946 2.837c0.177 0.094 0.335 0.216 0.46 0.363 0.015 0.018 0.040 0.027 0.064 0.015 0.020-0.010 0.032-0.039 0.017-0.057-0.137-0.159-0.3-0.29-0.484-0.388l-0.009-0.004c-0.051-0.027-0.098 0.044-0.047 0.072zM13.319 5.059c-0.218 0.242-0.489 0.442-0.797 0.586-0.053 0.025-0.006 0.096 0.047 0.072 0.314-0.148 0.592-0.353 0.816-0.599 0.037-0.041-0.028-0.1-0.066-0.059zM13.502 4.644c-0.245 0.297-0.565 0.539-0.93 0.709-0.053 0.025-0.006 0.096 0.047 0.072 0.38-0.177 0.709-0.431 0.963-0.739 0.035-0.043-0.045-0.085-0.080-0.042h0.001zM13.024 4.768c-0.125 0.163-0.299 0.291-0.5 0.371-0.023 0.009-0.028 0.039-0.017 0.057 0.014 0.021 0.041 0.024 0.064 0.015 0.215-0.086 0.4-0.227 0.534-0.401 0.034-0.044-0.046-0.086-0.080-0.042zM13.38 4.307c-0.253 0.234-0.583 0.389-0.941 0.445-0.059 0.009-0.034 0.089 0.025 0.080 0.372-0.058 0.719-0.223 0.982-0.466 0.041-0.038-0.024-0.097-0.066-0.059v-0.001zM12.892 4.295c-0.121 0.088-0.259 0.156-0.407 0.2-0.056 0.017-0.032 0.097 0.025 0.080 0.171-0.052 0.32-0.127 0.452-0.224l-0.004 0.003c0.019-0.014 0.017-0.044 0-0.059-0.019-0.017-0.046-0.014-0.066 0zM11.516 1.614c-0.761-0.098-1.546 0.063-2.181 0.451-0.049 0.030-0.002 0.102 0.047 0.072 0.613-0.375 1.374-0.537 2.11-0.442 0.058 0.008 0.083-0.073 0.025-0.080zM8.37 4.89c0.145 0.337 0.43 0.619 0.794 0.777 0.054 0.023 0.101-0.048 0.047-0.072-0.341-0.148-0.615-0.41-0.751-0.727-0.021-0.049-0.111-0.028-0.090 0.022v0.001zM8.866 5.106c0.072 0.134 0.194 0.246 0.341 0.315 0.022 0.010 0.051 0.005 0.064-0.015 0.004-0.006 0.006-0.013 0.006-0.021 0-0.016-0.009-0.029-0.023-0.036l-0-0c-0.135-0.064-0.241-0.162-0.308-0.286-0.011-0.020-0.043-0.026-0.064-0.015-0.023 0.012-0.028 0.037-0.017 0.057l0.001 0.001zM9.017 4.897l0.233 0.215c0.017 0.015 0.049 0.017 0.066 0s0.018-0.042 0-0.059l-0.233-0.215c-0.017-0.016-0.049-0.017-0.066 0s-0.018 0.042 0 0.059zM9.182 4.676c0.034 0.094 0.12 0.169 0.227 0.195 0.024 0.006 0.051-0.007 0.057-0.029 0.001-0.003 0.001-0.006 0.001-0.010 0-0.020-0.014-0.037-0.033-0.041l-0-0c-0.011-0.003-0.022-0.007-0.033-0.010l0.006 0.002s-0.004-0.001-0.005-0.002c-0.002-0.001-0.005-0.002-0.007-0.003l-0.001-0c-0.005-0.002-0.009-0.004-0.014-0.007-0.009-0.005-0.019-0.010-0.028-0.016-0.001-0.001-0.003-0.002-0.004-0.003l0.005 0.003s-0.004-0.003-0.007-0.005c-0.004-0.003-0.009-0.007-0.013-0.010-0.008-0.007-0.015-0.014-0.022-0.021l-0-0c-0.001-0.001-0.007-0.009-0.002-0.003s0-0-0.001-0.002c-0.003-0.004-0.007-0.008-0.010-0.013-0.005-0.007-0.011-0.016-0.016-0.025l-0.001-0.002c-0.001-0.002-0.002-0.006-0.004-0.007l0.002 0.005-0.002-0.005-0.006-0.014c-0.007-0.020-0.033-0.036-0.057-0.029-0.023 0.007-0.040 0.029-0.032 0.051l-0.001 0.001zM9.385 4.512c0.032 0.042 0.064 0.084 0.096 0.127 0.007 0.009 0.016 0.016 0.027 0.019l0 0c0.004 0.001 0.008 0.001 0.012 0.001 0.009 0 0.017-0.002 0.024-0.006l-0 0c0.020-0.012 0.031-0.038 0.017-0.057-0.032-0.042-0.064-0.084-0.096-0.127-0.007-0.009-0.016-0.016-0.027-0.019l-0-0c-0.004-0.001-0.008-0.001-0.012-0.001-0.009 0-0.017 0.002-0.024 0.006l0-0c-0.020 0.012-0.031 0.038-0.017 0.057zM9.571 4.386c0.031 0.043 0.063 0.085 0.095 0.127 0.009 0.012 0.024 0.020 0.040 0.020 0.009 0 0.017-0.002 0.024-0.006l-0 0c0.020-0.012 0.031-0.038 0.017-0.057-0.031-0.043-0.063-0.085-0.095-0.127-0.007-0.009-0.016-0.016-0.027-0.019l-0-0c-0.004-0.001-0.008-0.001-0.012-0.001-0.009 0-0.017 0.002-0.024 0.006l0-0c-0.020 0.012-0.031 0.038-0.017 0.057zM16.177 4.409c0.34 0.064 0.653 0.198 0.957 0.345 0.376 0.181 0.655 0.33 0.929 0.487l-0.076-0.040c0.564 0.318 1.105 0.668 1.617 1.049 0.319 0.239 0.592 0.459 0.857 0.688l-0.019-0.016c0.064 0.055 0.163-0.032 0.098-0.088-0.973-0.839-2.067-1.563-3.251-2.146-0.341-0.168-0.692-0.327-1.075-0.399-0.087-0.017-0.125 0.103-0.037 0.12z"></path>
<path d="M16.179 4.743c0.581 0.102 1.125 0.323 1.595 0.645 0.071 0.049 0.14-0.059 0.070-0.107-0.479-0.328-1.038-0.553-1.628-0.657-0.087-0.016-0.125 0.105-0.037 0.12v-0.001z"></path>
<path d="M16.125 4.985c0.454 0.064 0.881 0.224 1.249 0.47 0.072 0.048 0.141-0.060 0.070-0.107-0.376-0.251-0.819-0.418-1.282-0.483-0.088-0.012-0.126 0.108-0.037 0.12zM11.080 7.976c-0.503 0.711-0.242 1.59 0.228 2.252 0.048 0.068 0.168 0.005 0.12-0.063-0.444-0.626-0.705-1.452-0.228-2.127 0.048-0.068-0.072-0.131-0.12-0.063v0.001z"></path>
<path d="M11.018 8.817c0.059 0.401 0.229 0.782 0.503 1.104 0.053 0.063 0.174 0.001 0.12-0.063-0.258-0.303-0.428-0.663-0.484-1.042-0.005-0.034-0.028-0.062-0.069-0.062-0.034 0-0.074 0.029-0.069 0.062l-0.001 0.001zM11.27 8.753c0.057 0.31 0.228 0.6 0.481 0.818 0.064 0.056 0.163-0.032 0.098-0.088-0.237-0.205-0.392-0.473-0.445-0.763-0.006-0.033-0.052-0.051-0.085-0.044-0.040 0.010-0.054 0.043-0.049 0.076v0.001zM11.546 8.719l0.27 0.431c0.018 0.029 0.063 0.039 0.095 0.022s0.043-0.056 0.025-0.085c-0.090-0.144-0.18-0.287-0.27-0.431-0.018-0.029-0.063-0.039-0.095-0.022s-0.043 0.056-0.025 0.085zM11.803 8.614c0.011 0.007-0.004-0.003 0.002 0.002l0.009 0.007c0.007 0.005 0.014 0.011 0.020 0.016 0.013 0.011 0.026 0.023 0.038 0.034 0.006 0.006 0.012 0.012 0.017 0.018 0.007 0.007-0.006-0.008 0 0 0.003 0.004 0.006 0.007 0.009 0.011 0.010 0.013 0.020 0.027 0.029 0.041 0.009 0.013 0.016 0.027 0.023 0.040 0.002 0.005 0.005 0.011 0.001 0.002 0.001 0.003 0.003 0.007 0.004 0.010 0.003 0.008 0.006 0.015 0.009 0.023 0.006 0.015 0.010 0.031 0.015 0.046l0.006 0.024 0.002 0.010c-0.003-0.014 0 0.003 0 0.005 0.004 0.032 0.029 0.064 0.069 0.062 0.034-0.001 0.074-0.028 0.069-0.062-0.020-0.16-0.111-0.302-0.255-0.397-0.029-0.019-0.079-0.005-0.095 0.022-0.019 0.033-0.006 0.064 0.025 0.085h0.001zM11.963 8.214c0.082 0.126 0.164 0.251 0.246 0.377 0.019 0.028 0.064 0.040 0.095 0.022s0.044-0.055 0.025-0.085c-0.082-0.126-0.164-0.251-0.246-0.377-0.018-0.028-0.064-0.040-0.095-0.022s-0.044 0.055-0.025 0.085zM8.857 5.891c-0.027 0.253-0.069 0.506-0.124 0.756-0.017 0.078 0.117 0.112 0.134 0.033 0.050-0.215 0.096-0.483 0.126-0.757l0.003-0.033c0.004-0.034-0.035-0.062-0.069-0.062-0.001-0-0.002-0-0.002-0-0.035 0-0.064 0.027-0.067 0.062v0h-0.001zM8.641 5.765c-0.010 0.172-0.068 0.338-0.168 0.484-0.046 0.069 0.074 0.131 0.12 0.063 0.112-0.166 0.176-0.354 0.186-0.547 0.002-0.034-0.033-0.062-0.069-0.062-0.039 0-0.067 0.029-0.069 0.062zM8.42 5.526c-0.079 0.113-0.159 0.226-0.238 0.338-0.019 0.028-0.007 0.070 0.025 0.085 0.034 0.016 0.074 0.007 0.095-0.022 0.079-0.113 0.159-0.226 0.238-0.338 0.019-0.028 0.007-0.070-0.025-0.085-0.034-0.016-0.074-0.007-0.095 0.022zM8.116 5.257c0.001 0.014 0 0.027-0.002 0.040l0.002-0.017c-0.003 0.019-0.008 0.035-0.015 0.051l0.001-0.002c-0.001 0.002-0.004 0.009 0 0 0.005-0.010 0-0.001-0.001 0.001-0.002 0.004-0.004 0.008-0.006 0.011-0.005 0.008-0.010 0.016-0.015 0.023-0.001 0.002-0.002 0.003-0.004 0.005-0.004 0.006 0.010-0.011 0.004-0.005-0.009 0.010-0.019 0.019-0.030 0.028l-0.001 0c-0.001 0.001-0.010 0.007-0.010 0.008 0-0.001 0.014-0.009 0.006-0.004-0.002 0.001-0.004 0.003-0.006 0.004l0-0c-0.009 0.006-0.018 0.010-0.027 0.014-0.032 0.015-0.045 0.058-0.025 0.085 0.021 0.029 0.061 0.038 0.095 0.022 0.108-0.049 0.178-0.159 0.172-0.267-0.003-0.035-0.032-0.062-0.067-0.062-0.001 0-0.002 0-0.003 0h0c-0.036 0.002-0.071 0.028-0.069 0.062h-0.001z"></path>
<path d="M7.419 3.366c0.015 1.282 0.82 2.393 1.335 3.548 0.148 0.331 0.273 0.67 0.354 1.020 0.018 0.079 0.152 0.045 0.134-0.033-0.285-1.239-1.125-2.295-1.507-3.504-0.106-0.336-0.172-0.681-0.176-1.031-0.001-0.080-0.14-0.080-0.139 0z"></path>
<path d="M8.094 2.697c-0.162 0.153-0.377 0.384-0.587 0.479-0.253 0.115-0.597-0.161-0.811-0.281-0.026-0.015-0.065 0.016-0.045 0.040 0.155 0.183 0.469 0.595 0.783 0.531 0.299-0.060 0.564-0.522 0.718-0.729 0.023-0.032-0.029-0.067-0.058-0.040h-0.001zM13.408 5.464c0.045 0.122 0.076 0.263 0.088 0.409l0 0.006c0.002 0.023 0.022 0.042 0.046 0.042 0 0 0.001 0 0.001 0h-0c0.023 0 0.048-0.019 0.046-0.042-0.012-0.16-0.045-0.308-0.096-0.448l0.004 0.012c-0.018-0.051-0.108-0.029-0.090 0.022h0.001zM13.284 5.625c-0.001 0.018-0.002 0.040-0.002 0.061 0 0.178 0.040 0.347 0.11 0.498l-0.003-0.007c0.009 0.020 0.031 0.035 0.057 0.029 0.022-0.006 0.042-0.030 0.032-0.051-0.077-0.168-0.112-0.348-0.102-0.53 0.003-0.053-0.090-0.053-0.093 0v0zM13.026 5.719c0.055 0.188 0.108 0.427 0.148 0.67l0.005 0.037c0.009 0.053 0.098 0.030 0.090-0.022-0.045-0.281-0.098-0.519-0.164-0.753l0.011 0.045c-0.014-0.052-0.104-0.030-0.090 0.022zM12.819 5.823c0.040 0.341 0.106 0.649 0.2 0.945l-0.010-0.035c0.016 0.051 0.105 0.029 0.090-0.022-0.082-0.255-0.148-0.555-0.185-0.865l-0.002-0.023c-0.006-0.053-0.099-0.053-0.093 0h-0.001zM12.672 6.020c0.002 0.238 0.053 0.464 0.142 0.669l-0.004-0.011c0.021 0.049 0.111 0.028 0.090-0.022-0.087-0.204-0.133-0.418-0.135-0.636 0-0.053-0.093-0.054-0.093 0zM12.71 1.028c-0.064 0.098-0.038 0.219-0.028 0.328 0.011 0.121 0.007 0.237 0.090 0.338 0.023 0.029 0.085 0.042 0.105 0 0.059-0.122 0.028-0.234 0.007-0.361-0.018-0.108-0.023-0.23-0.11-0.312-0.018-0.017-0.051-0.012-0.064 0.007v0.001z"></path>
</symbol>
</defs>
</svg>
