<!-- Generated by IcoMoon.io -->
<svg version="1.1" xmlns="http://www.w3.org/2000/svg" width="32" height="32" viewBox="0 0 32 32">
<title>call-calling-communication-svgrepo-com</title>
<path fill="#190933" d="M12.25 16.5c0 1.46 1.93 2.25 3.75 2.25s3.75-0.79 3.75-2.25c0-2.185-3.365-2.25-3.75-2.25s-3.75 0.065-3.75 2.25zM19.25 16.5c0 1.095-1.65 1.75-3.25 1.75s-3.25-0.655-3.25-1.75c0-1.73 3.115-1.75 3.25-1.75s3.25 0.020 3.25 1.75z"></path>
<path fill="#190933" d="M20.5 24.75h-3c-0.138 0-0.25 0.112-0.25 0.25s0.112 0.25 0.25 0.25v0h3c0.138 0 0.25-0.112 0.25-0.25s-0.112-0.25-0.25-0.25v0z"></path>
<path fill="#190933" d="M22.22 6.43l0.215 0.53c0.296 0.704 0.963 1.197 1.75 1.235l0.005 0c0.296 0.018 0.643 0.028 0.991 0.028 1.518 0 2.991-0.193 4.396-0.555l-0.122 0.027c1.043-0.285 1.797-1.223 1.797-2.338 0-0.426-0.11-0.826-0.303-1.174l0.006 0.012-0.985-1.785c-0.688-1.249-1.923-2.123-3.373-2.303l-0.022-0.002c-2.645-0.3-7.13-0.11-13.5 2.5s-9.68 5.65-11.345 7.725c-0.604 0.754-0.97 1.723-0.97 2.777 0 0.447 0.066 0.878 0.188 1.285l-0.008-0.032 0.56 1.94c0.171 0.563 0.525 1.027 0.991 1.334l0.009 0.006c0.076 0.050 0.168 0.103 0.263 0.152l0.018 0.008c-0.145 0.14-0.305 0.285-0.47 0.435s-0.265 0.235-0.395 0.36c-0.091 0.091-0.148 0.216-0.148 0.355s0.057 0.264 0.148 0.355l0 0c0.091 0.096 0.22 0.155 0.362 0.155 0.001 0 0.002 0 0.003 0h-0c0.132-0 0.251-0.052 0.34-0.135l-0 0c0.13-0.115 0.255-0.235 0.385-0.345 0.312-0.288 0.598-0.592 0.862-0.914l0.013-0.016c0.413-0.012 0.797-0.126 1.132-0.316l-0.012 0.006c1.577-0.931 2.928-2.040 4.086-3.325l0.014-0.015c0.264-0.291 0.444-0.663 0.499-1.075l0.001-0.010c0.196 0.323 0.414 0.604 0.661 0.856l-0.001-0.001c-0.475 0.611-0.761 1.389-0.761 2.234 0 0.034 0 0.067 0.001 0.1l-0-0.005c0.002 0.042 0.002 0.091 0.002 0.141 0 1.594-0.895 2.978-2.21 3.679l-0.022 0.011c-0.447 0.245-0.801 0.612-1.024 1.056l-0.006 0.014-1.5 2.955c-0.152 0.313-0.24 0.681-0.24 1.070 0 0.016 0 0.032 0 0.048l-0-0.002v0.53h-0.5c-0.828 0-1.5 0.672-1.5 1.5s0.672 1.5 1.5 1.5v0h0.59c0.155 0.426 0.484 0.755 0.9 0.907l0.010 0.003v0.090c0 1.105 0.895 2 2 2v0h17c1.105 0 2-0.895 2-2v0-0.090c0.586-0.212 0.998-0.762 1-1.41v-3.030c-0.001-0.407-0.099-0.79-0.272-1.129l0.007 0.014-1.475-2.955c-0.229-0.458-0.583-0.825-1.017-1.064l-0.013-0.006c-1.337-0.711-2.232-2.096-2.232-3.689 0-0.049 0.001-0.099 0.003-0.148l-0 0.007c0-0.021 0.001-0.046 0.001-0.071 0-0.856-0.294-1.644-0.787-2.267l0.006 0.008c0.931-1.064 1.549-2.423 1.698-3.921l0.002-0.029c0.010-0.066 0.016-0.143 0.016-0.221 0-0.385-0.145-0.735-0.383-1.001l0.001 0.001c-0.281-0.308-0.684-0.5-1.131-0.5-0.003 0-0.006 0-0.009 0h0c-0.008-0-0.016-0-0.025-0-0.731 0-1.34 0.523-1.473 1.216l-0.002 0.009c-0.199 1.122-0.87 2.057-1.797 2.605l-0.017 0.010c-0.784-0.216-1.685-0.34-2.615-0.34s-1.831 0.124-2.687 0.357l0.072-0.017c-0.945-0.558-1.616-1.493-1.812-2.592l-0.003-0.023c-0.134-0.702-0.743-1.225-1.475-1.225-0.009 0-0.018 0-0.027 0l0.001-0c-0.003 0-0.006-0-0.009-0-0.448 0-0.851 0.192-1.13 0.499l-0.001 0.001c-0.236 0.264-0.379 0.614-0.379 0.997 0 0.073 0.005 0.145 0.015 0.216l-0.001-0.008c0.035 0.27 0.085 0.53 0.14 0.79-0.050-0.045-0.1-0.090-0.16-0.135-0.33-0.264-0.54-0.667-0.54-1.119 0-0.059 0.003-0.116 0.010-0.173l-0.001 0.007c0.032-0.36 0.264-0.66 0.584-0.788l0.006-0.002 12-4.945c0.114-0.053 0.248-0.084 0.389-0.084 0.233 0 0.447 0.085 0.612 0.225l-0.001-0.001c0.316 0.269 0.515 0.666 0.515 1.111 0 0.074-0.006 0.146-0.016 0.217l0.001-0.008c-0.017 0.101-0.027 0.218-0.027 0.336 0 0.286 0.058 0.559 0.163 0.807l-0.005-0.014zM3.5 27.5c0-0.276 0.224-0.5 0.5-0.5v0h0.5v1h-0.5c-0.276 0-0.5-0.224-0.5-0.5v0zM24.5 31h-17c-0.552 0-1-0.448-1-1v0h19c0 0.552-0.448 1-1 1v0zM11.3 29c0.134-0.177 0.271-0.379 0.397-0.588l0.018-0.032c0.365-0.605 0.675-1.13 1.285-1.13h6c0.61 0 0.92 0.5 1.285 1.13 0.144 0.241 0.281 0.443 0.428 0.638l-0.013-0.018zM24.26 21.21c0.261 0.149 0.468 0.366 0.601 0.627l0.004 0.009 1.45 2.905h-3.815c-0.138 0-0.25 0.112-0.25 0.25s0.112 0.25 0.25 0.25v0h4c0.002 0.033 0.004 0.071 0.004 0.11s-0.001 0.077-0.004 0.115l0-0.005v3.030c0 0.276-0.224 0.5-0.5 0.5v0h-4.635c-0.254-0.252-0.471-0.542-0.641-0.861l-0.009-0.019c-0.385-0.62-0.825-1.37-1.715-1.37h-6c-0.89 0-1.33 0.73-1.715 1.37-0.179 0.338-0.396 0.628-0.65 0.88l-0 0h-4.635c-0.276 0-0.5-0.224-0.5-0.5v0-3.030c0.004-0.081 0.013-0.156 0.027-0.23l-0.002 0.010h9.975c0.138 0 0.25-0.112 0.25-0.25s-0.112-0.25-0.25-0.25v0h-9.815l1.45-2.905c0.137-0.269 0.344-0.486 0.598-0.631l0.007-0.004c1.092-0.595 1.932-1.537 2.383-2.675l0.012-0.035c1.12 1.62 3.545 2.5 5.865 2.5s4.745-0.86 5.865-2.5c0.463 1.173 1.303 2.115 2.368 2.696l0.027 0.014zM19.805 12.75c0.808-0.727 1.38-1.701 1.6-2.802l0.005-0.033c0.042-0.237 0.247-0.415 0.493-0.415 0.003 0 0.005 0 0.008 0h-0c0.003-0 0.006-0 0.009-0 0.276 0 0.5 0.224 0.5 0.5 0 0.034-0.003 0.066-0.010 0.098l0.001-0.003c-0.126 1.297-0.637 2.455-1.418 3.379l0.008-0.009-0.060-0.040c-0.14-0.105-0.285-0.205-0.44-0.3l-0.17-0.1c-0.145-0.080-0.295-0.155-0.445-0.225zM18.585 13.375c0.185 0.055 0.365 0.115 0.535 0.18l0.11 0.045c0.192 0.074 0.348 0.146 0.5 0.227l-0.025-0.012 0.065 0.030c0.179 0.095 0.331 0.192 0.476 0.298l-0.011-0.008c0.152 0.112 0.285 0.225 0.411 0.346l-0.001-0.001c0.527 0.494 0.855 1.194 0.855 1.972 0 0.017-0 0.034-0 0.051l0-0.003c0 2.19-2.795 3.5-5.5 3.5s-5.5-1.31-5.5-3.5c-0-0.013-0-0.028-0-0.043 0-0.77 0.322-1.465 0.839-1.956l0.001-0.001c0.125-0.12 0.258-0.233 0.399-0.337l0.011-0.008c0.134-0.098 0.286-0.195 0.444-0.28l0.021-0.010 0.065-0.030c0.127-0.069 0.283-0.141 0.444-0.204l0.031-0.011 0.11-0.045q0.255-0.1 0.54-0.18c0.772-0.23 1.662-0.373 2.583-0.395l0.012-0c0.926 0.017 1.814 0.152 2.658 0.393l-0.073-0.018zM9.695 9.675c0.096-0.107 0.235-0.175 0.39-0.175h0c0.002-0 0.005-0 0.007-0 0.246 0 0.451 0.178 0.492 0.412l0 0.003c0.225 1.134 0.797 2.108 1.6 2.831l0.005 0.004-0.095 0.050c-0.15 0.070-0.3 0.145-0.445 0.23l-0.17 0.095c-0.155 0.095-0.3 0.195-0.44 0.3l-0.060 0.040c-0.774-0.915-1.288-2.073-1.413-3.345l-0.002-0.025c-0.003-0.020-0.004-0.044-0.004-0.067 0-0.136 0.051-0.259 0.135-0.353l-0 0.001zM30.195 5.625c-0.11 0.533-0.505 0.951-1.015 1.093l-0.010 0.002c-1.233 0.331-2.649 0.521-4.109 0.521-0.294 0-0.586-0.008-0.876-0.023l0.041 0.002c-0.397-0.019-0.732-0.266-0.878-0.613l-0.002-0.007-0.215-0.53c-0.046-0.115-0.073-0.249-0.073-0.388 0-0.070 0.007-0.138 0.019-0.203l-0.001 0.007c0.007-0.063 0.011-0.136 0.011-0.21s-0.004-0.147-0.012-0.219l0.001 0.009c2.546-0.15 4.88-0.421 7.173-0.814l-0.378 0.054 0.195 0.36c0.109 0.196 0.173 0.43 0.173 0.679 0 0.099-0.010 0.196-0.030 0.29l0.002-0.009zM8.335 12.125l0.215 0.53c0.048 0.113 0.076 0.244 0.076 0.381 0 0.262-0.101 0.501-0.266 0.679l0.001-0.001c-1.102 1.221-2.368 2.264-3.771 3.104l-0.074 0.041c-0.202 0.116-0.443 0.184-0.701 0.184-0.646 0-1.192-0.43-1.366-1.019l-0.003-0.010-0.115-0.39c1.994-1.432 3.726-2.819 5.383-4.289l-0.068 0.059c0.094 0.101 0.196 0.193 0.304 0.276l0.006 0.004c0.171 0.114 0.306 0.27 0.392 0.453l0.003 0.007zM20.23 2.915l-12 4.945c-0.667 0.261-1.147 0.863-1.229 1.586l-0.001 0.009c-0.010 0.082-0.016 0.177-0.016 0.274 0 0.473 0.136 0.914 0.371 1.286l-0.006-0.010c-1.542 1.374-3.22 2.725-4.963 3.991l-0.187 0.129-0.3-1.040c-0.091-0.295-0.143-0.634-0.143-0.985 0-0.813 0.28-1.561 0.748-2.153l-0.006 0.007c1.59-2 4.78-4.88 10.95-7.415 4.865-2 8.55-2.54 11.15-2.54 0.008 0 0.018-0 0.028-0 0.645 0 1.282 0.036 1.909 0.107l-0.077-0.007c1.141 0.146 2.098 0.824 2.626 1.772l0.009 0.018 0.5 0.955c-1.842 0.311-4.098 0.56-6.385 0.692l-0.175 0.008c-0.125-0.544-0.418-1.007-0.821-1.342l-0.004-0.003c-0.33-0.273-0.758-0.439-1.225-0.439-0.273 0-0.532 0.057-0.767 0.159l0.012-0.005z"></path>
<path fill="#190933" d="M1.080 26.53c0.092 0.125 0.238 0.205 0.404 0.205 0 0 0.001 0 0.001 0h-0c0.001 0 0.001 0 0.002 0 0.11 0 0.212-0.036 0.295-0.096l-0.001 0.001c0.126-0.092 0.206-0.239 0.206-0.405 0-0.111-0.036-0.214-0.097-0.297l0.001 0.001c-0.331-0.464-0.578-1.013-0.705-1.606l-0.005-0.029c-0.058-0.217-0.252-0.375-0.484-0.375-0.276 0-0.5 0.224-0.5 0.5 0 0.034 0.003 0.066 0.010 0.098l-0.001-0.003c0.165 0.763 0.469 1.436 0.886 2.022l-0.011-0.017z"></path>
<path fill="#190933" d="M0.5 22.93c0.276 0 0.5-0.224 0.5-0.5v0c0-0.001 0-0.001 0-0.002 0-0.619 0.154-1.202 0.425-1.713l-0.010 0.020c0.036-0.067 0.057-0.147 0.057-0.232 0-0.191-0.107-0.357-0.265-0.441l-0.003-0.001c-0.067-0.036-0.147-0.057-0.232-0.057-0.191 0-0.357 0.107-0.441 0.265l-0.001 0.003c-0.334 0.621-0.53 1.36-0.53 2.144 0 0.002 0 0.004 0 0.007v-0c0 0.276 0.224 0.5 0.5 0.5v0z"></path>
<path fill="#190933" d="M5.325 1.825c-0.047 0.044-0.076 0.106-0.076 0.175s0.029 0.131 0.076 0.175l0.5 0.5c0.044 0.047 0.106 0.076 0.175 0.076s0.131-0.029 0.175-0.076l0-0c0.047-0.044 0.076-0.106 0.076-0.175s-0.029-0.131-0.076-0.175l-0.5-0.5c-0.044-0.047-0.106-0.076-0.175-0.076s-0.131 0.029-0.175 0.076l-0 0z"></path>
<path fill="#190933" d="M7.25 2.5v-0.5c0-0.138-0.112-0.25-0.25-0.25s-0.25 0.112-0.25 0.25v0 0.5c0 0.138 0.112 0.25 0.25 0.25s0.25-0.112 0.25-0.25v0z"></path>
<path fill="#190933" d="M5.5 3.75h0.5c0.138 0 0.25-0.112 0.25-0.25s-0.112-0.25-0.25-0.25v0h-0.5c-0.138 0-0.25 0.112-0.25 0.25s0.112 0.25 0.25 0.25v0z"></path>
</svg>
