<svg width="48" height="48" viewBox="0 0 48 48" fill="none" xmlns="http://www.w3.org/2000/svg">
<rect width="48" height="48" transform="matrix(-1 0 0 -1 48 48)" fill="#F8F8F8" fill-opacity="0.2"/>
<path d="M17.4693 9.53058C17.3285 9.38985 17.2495 9.19897 17.2495 8.99995C17.2495 8.80093 17.3285 8.61006 17.4693 8.46933C17.61 8.3286 17.8009 8.24953 17.9999 8.24953C18.1989 8.24953 18.3898 8.3286 18.5305 8.46933L33.5305 23.4693C33.6003 23.539 33.6556 23.6217 33.6933 23.7127C33.7311 23.8038 33.7505 23.9014 33.7505 24C33.7505 24.0985 33.7311 24.1961 33.6933 24.2872C33.6556 24.3782 33.6003 24.4609 33.5305 24.5306L18.5305 39.5306C18.4608 39.6003 18.3781 39.6555 18.2871 39.6932C18.196 39.731 18.0984 39.7504 17.9999 39.7504C17.9014 39.7504 17.8038 39.731 17.7127 39.6932C17.6217 39.6555 17.539 39.6003 17.4693 39.5306C17.3996 39.4609 17.3443 39.3782 17.3066 39.2871C17.2689 39.1961 17.2495 39.0985 17.2495 38.9999C17.2495 38.9014 17.2689 38.8038 17.3066 38.7128C17.3443 38.6217 17.3996 38.539 17.4693 38.4693L31.9386 24L17.4693 9.53058Z" fill="#901719"/>
</svg>
