<!-- Generated by IcoMoon.io -->
<svg version="1.1" xmlns="http://www.w3.org/2000/svg" width="32" height="32" viewBox="0 0 32 32">
<title>email-address-svgrepo-com</title>
<path d="M17.367 22.667h-12.424l7.951-7.951 3.107 2.391 3.107-2.392 2.137 2.137c0.38-0.207 0.824-0.392 1.287-0.533l0.052-0.014-2.411-2.411 7.828-6.028v8.96c0.508 0.255 0.945 0.539 1.347 0.864l-0.014-0.011v-10.347c-0.003-1.103-0.897-1.997-2-2h-22.667c-1.103 0.003-1.997 0.897-2 2v14.667c0 1.105 0.895 2 2 2v0h12.7c-0.020-0.22-0.033-0.441-0.033-0.667s0.013-0.447 0.033-0.667zM4 21.724v-13.856l7.828 6.027zM27.333 6.667c0.012 0 0.021 0.007 0.033 0.007l-11.367 8.753-11.367-8.753c0.012 0 0.021-0.007 0.033-0.007zM24.667 17.333c-3.312 0.004-5.996 2.688-6 6v0c0.011 0.246 0.035 0.475 0.071 0.701l-0.005-0.034c0.34 3.007 2.865 5.324 5.932 5.333h0.668v-1.333h-0.667c-2.335-0.007-4.266-1.73-4.597-3.975l-0.003-0.025c-0.036-0.196-0.060-0.426-0.067-0.66l-0-0.006c0-0.001 0-0.002 0-0.003 0-2.576 2.088-4.664 4.664-4.664 1.272 0 2.425 0.509 3.266 1.334l-0.001-0.001h-1.263v0.684c-0.548-0.424-1.244-0.681-1.999-0.684h-0.001c-0.003 0-0.006 0-0.009 0-1.841 0-3.333 1.492-3.333 3.333s1.492 3.333 3.333 3.333c0.902 0 1.721-0.358 2.321-0.941l-0.001 0.001c0.358 0.568 0.983 0.939 1.693 0.939 1.102 0 1.996-0.894 1.996-1.996 0-0.001 0-0.002 0-0.003v0-1.333c-0.041-3.297-2.703-5.959-5.996-6l-0.004-0zM24.667 25.333c-0.863-0.003-1.596-0.552-1.873-1.319l-0.004-0.014c-0.076-0.198-0.12-0.427-0.123-0.666v-0.001c0-1.105 0.895-2 2-2s2 0.895 2 2v0c-0.002 0.24-0.047 0.469-0.127 0.68l0.005-0.014c-0.281 0.781-1.015 1.33-1.877 1.333h-0zM29.333 24.667c0 0.368-0.298 0.667-0.667 0.667s-0.667-0.298-0.667-0.667v0-4.596c0.808 0.85 1.312 1.995 1.333 3.259l0 0.004z"></path>
</svg>
