<!-- Generated by IcoMoon.io -->
<svg version="1.1" xmlns="http://www.w3.org/2000/svg" width="32" height="32" viewBox="0 0 32 32">
<title>instagram-social-media-network-communication-interaction-connection-svgrepo-com</title>
<path fill="#dd2a7b" d="M24.113 6.064c-2.432 0.075-2.431 3.573 0 3.647 2.432-0.075 2.431-3.573 0-3.647z"></path>
<path fill="#dd2a7b" d="M16 8.175c-4.31 0-7.804 3.503-7.804 7.825 0.411 10.38 15.199 10.377 15.609 0 0-4.322-3.494-7.825-7.804-7.825zM16 21.079c-2.798 0-5.066-2.274-5.066-5.079 0.267-6.738 9.866-6.736 10.132 0-0 2.805-2.268 5.079-5.066 5.079z"></path>
<path fill="#dd2a7b" d="M31.107 9.734c-0.113-5.333-3.506-8.729-8.841-8.84-1.281-0.124-11.25-0.126-12.532 0-5.333 0.113-8.729 3.506-8.84 8.841-0.124 1.279-0.126 11.252 0 12.532 0.1 5.316 3.524 8.741 8.84 8.84 1.281 0.125 11.25 0.125 12.532 0 1.618-0.074 2.723-0.331 3.689-0.707 3.388-1.353 5.043-4.364 5.151-8.134 0.124-1.281 0.126-11.25 0-12.532zM22.141 28.371c-1.26 0.12-11.021 0.122-12.283 0-1.482-0.068-2.286-0.315-2.822-0.523-4.624-2.145-3.19-6.482-3.408-12.435 0.005-1.383-0.003-4.172 0-5.554 0.185-4.122 2.126-6.031 6.23-6.23 1.262-0.12 11.020-0.122 12.283 0 4.124 0.185 6.030 2.126 6.23 6.229 0.082 0.985 0.141 6.364 0 9.086 0.152 5.112-0.081 9.127-6.23 9.427z"></path>
</svg>
