<!-- Generated by IcoMoon.io -->
<svg version="1.1" xmlns="http://www.w3.org/2000/svg" width="32" height="32" viewBox="0 0 32 32">
<title>telegram-communication-chat-interaction-network-connection-svgrepo-com</title>
<path fill="#1b92d1" d="M28.391 3.885c-3.937 1.631-20.82 8.624-25.484 10.53-3.128 1.221-1.297 2.365-1.297 2.365s2.67 0.916 4.96 1.602c2.289 0.687 3.51-0.076 3.51-0.076l10.758-7.249c3.815-2.594 2.9-0.458 1.984 0.458-1.984 1.984-5.265 5.112-8.012 7.63-1.221 1.068-0.611 1.984-0.076 2.442 1.984 1.679 7.401 5.112 7.706 5.341 1.612 1.141 4.782 2.784 5.265-0.687 0 0 1.908-11.979 1.908-11.979 0.611-4.044 1.221-7.783 1.297-8.851 0.229-2.595-2.518-1.526-2.518-1.526z"></path>
</svg>
