<!-- Generated by IcoMoon.io -->
<svg version="1.1" xmlns="http://www.w3.org/2000/svg" width="32" height="32" viewBox="0 0 32 32">
<title>tiktok-social-media-network-communication-internet-interaction-connection-svgrepo-com</title>
<path fill="#69c9d0" d="M23.708 6.801c-1.319-1.533-2.010-3.514-1.955-5.531l-4.928-0.119c0 0 0 0.21 0 0.494v19.76c0.069 6.252-9.808 6.1-9.027-0.81 0.478-2.748 3.43-4.438 6.053-3.483 0 0 0-5.028 0-5.028-5.711-0.995-11.124 3.551-11.067 9.343 0.499 12.56 18.514 12.562 19.014 0-0.126-0.45-0.055-8.82-0.073-9.525 2.241 1.394 4.848 2.091 7.488 2.002v-5.193c-2.441 0-4.304-0.649-5.506-1.91z"></path>
</svg>
