<!-- Generated by IcoMoon.io -->
<svg version="1.1" xmlns="http://www.w3.org/2000/svg" width="32" height="32" viewBox="0 0 32 32">
<title>whatsapp-communication-message-interaction-network-svgrepo-com</title>
<path fill="#f1f1f1" d="M26.487 5.455c-12.299-11.943-31.593 2.831-23.234 17.806-0 0-2.094 7.647-2.094 7.647l7.826-2.052c14.972 7.916 29.305-11.268 17.503-23.401z"></path>
<path fill="#66e066" d="M16.046 28.398c-2.43 0.009-4.792-0.721-6.829-2.014 0 0-4.735 1.241-4.735 1.241l1.264-4.615c-1.42-2.105-2.221-4.573-2.21-7.128-0.022-11.056 13.576-16.692 21.359-8.837 7.845 7.789 2.21 21.377-8.849 21.353z"></path>
<path fill="#f1f1f1" d="M22.907 19.032c-0.376-0.188-2.225-1.098-2.57-1.223s-0.596-0.188-0.846 0.188c-0.251 0.376-0.971 1.223-1.19 1.474s-0.439 0.283-0.815 0.094c-0.812 0.108-4.98-3.416-5.116-4.47-0.219-0.376-0.023-0.58 0.165-0.767 0.327-0.359 0.742-0.811 0.94-1.286 0.125-0.251 0.063-0.471-0.031-0.659s-0.825-2.048-1.159-2.791c-0.282-0.626-0.578-0.639-0.846-0.65-0.635 0.010-1.126-0.155-1.724 0.462-2.241 2.157-1.213 5.188 0.219 7.026 0.188 0.251 2.602 4.169 6.424 5.676 3.177 1.253 3.823 1.004 4.513 0.941s2.225-0.909 2.538-1.788c0.313-0.878 0.313-1.631 0.22-1.788s-0.345-0.25-0.721-0.438z"></path>
</svg>
